<svg width="24" height="25" viewBox="0 0 24 25" fill="none" xmlns="http://www.w3.org/2000/svg">
<path d="M22.9403 1.56006C22.2605 0.881259 21.339 0.5 20.3783 0.5C19.4176 0.5 18.4961 0.881259 17.8163 1.56006L0 19.376V24.5H5.12407L22.9403 6.68405C23.6189 6.00407 24 5.08268 24 4.12205C24 3.16143 23.6189 2.24003 22.9403 1.56006V1.56006ZM4.30006 22.5H2.00003V20.2L15.3102 6.90005L17.6103 9.20004L4.30006 22.5ZM21.5263 5.27005L19.0193 7.77704L16.7242 5.47705L19.2303 2.97406C19.5353 2.66906 19.949 2.49771 20.3803 2.49771C20.8116 2.49771 21.2253 2.66906 21.5303 2.97406C21.8353 3.27905 22.0067 3.69272 22.0067 4.12405C22.0067 4.55539 21.8353 4.96905 21.5303 5.27405L21.5263 5.27005Z" fill="#CF3339"/>
</svg>