<svg width="24" height="25" viewBox="0 0 24 25" fill="none" xmlns="http://www.w3.org/2000/svg">
    <path fillRule="evenodd" clipRule="evenodd" d="M2.4 12.7378C2.40017 10.8903 2.93342 9.08217 3.93575 7.53025C4.93808 5.97834 6.36691 4.74861 8.05081 3.98861C9.7347 3.22861 11.6021 2.97064 13.429 3.24564C15.2559 3.52064 16.9646 4.31694 18.3501 5.53898C19.7357 6.76103 20.7392 8.3569 21.2402 10.1351C21.7412 11.9133 21.7185 13.7984 21.1748 15.564C20.6311 17.3296 19.5895 18.9009 18.1749 20.0892C16.7604 21.2775 15.033 22.0325 13.2 22.2634V15.1378H15.6C15.9183 15.1378 16.2235 15.0114 16.4485 14.7863C16.6736 14.5613 16.8 14.2561 16.8 13.9378C16.8 13.6195 16.6736 13.3143 16.4485 13.0893C16.2235 12.8642 15.9183 12.7378 15.6 12.7378H13.2V10.3378C13.2 10.0195 13.3264 9.71431 13.5515 9.48927C13.7765 9.26422 14.0817 9.13779 14.4 9.13779H15C15.3183 9.13779 15.6235 9.01136 15.8485 8.78632C16.0736 8.56128 16.2 8.25605 16.2 7.93779C16.2 7.61953 16.0736 7.31431 15.8485 7.08927C15.6235 6.86422 15.3183 6.73779 15 6.73779H14.4C13.4452 6.73779 12.5295 7.11708 11.8544 7.79221C11.1793 8.46734 10.8 9.38301 10.8 10.3378V12.7378H8.4C8.08174 12.7378 7.77652 12.8642 7.55147 13.0893C7.32643 13.3143 7.2 13.6195 7.2 13.9378C7.2 14.2561 7.32643 14.5613 7.55147 14.7863C7.77652 15.0114 8.08174 15.1378 8.4 15.1378H10.8V22.2634C8.48004 21.9708 6.34658 20.8417 4.8 19.0879C3.25342 17.3341 2.40004 15.0761 2.4 12.7378ZM12 24.7378C18.6276 24.7378 24 19.3654 24 12.7378C24 6.11019 18.6276 0.737793 12 0.737793C5.3724 0.737793 0 6.11019 0 12.7378C0 19.3654 5.3724 24.7378 12 24.7378Z" fill="#5A5A5A"/>
</svg>
