<svg width="24" height="25" viewBox="0 0 24 25" fill="none" xmlns="http://www.w3.org/2000/svg">
<path d="M11.9907 6.55566C10.3563 6.55566 8.78882 7.20393 7.63311 8.35784C6.4774 9.51176 5.82813 11.0768 5.82812 12.7087C5.82813 14.3406 6.4774 15.9056 7.63311 17.0595C8.78882 18.2135 10.3563 18.8617 11.9907 18.8617C13.6251 18.8617 15.1926 18.2135 16.3483 17.0595C17.504 15.9056 18.1533 14.3406 18.1533 12.7087C18.1533 11.0768 17.504 9.51176 16.3483 8.35784C15.1926 7.20393 13.6251 6.55566 11.9907 6.55566ZM11.9907 16.7047C10.9289 16.7047 9.91059 16.2836 9.15978 15.5339C8.40897 14.7843 7.98717 13.7675 7.98717 12.7074C7.98717 11.6472 8.40897 10.6305 9.15978 9.88082C9.91059 9.13117 10.9289 8.71002 11.9907 8.71002C13.0525 8.71002 14.0708 9.13117 14.8217 9.88082C15.5725 10.6305 15.9943 11.6472 15.9943 12.7074C15.9943 13.7675 15.5725 14.7843 14.8217 15.5339C14.0708 16.2836 13.0525 16.7047 11.9907 16.7047Z" fill="#5A5A5A"/>
<path d="M18.3976 7.76346C19.1911 7.76346 19.8343 7.12123 19.8343 6.329C19.8343 5.53676 19.1911 4.89453 18.3976 4.89453C17.6042 4.89453 16.9609 5.53676 16.9609 6.329C16.9609 7.12123 17.6042 7.76346 18.3976 7.76346Z" fill="#5A5A5A"/>
<path d="M23.3643 4.87086C23.0558 4.07536 22.5843 3.35294 21.98 2.74985C21.3758 2.14676 20.652 1.67628 19.8552 1.36853C18.9227 1.01904 17.9376 0.830063 16.9418 0.809649C15.6584 0.753761 15.2519 0.737793 11.9973 0.737793C8.74278 0.737793 8.32563 0.737793 7.05287 0.809649C6.05783 0.82902 5.07342 1.01803 4.14216 1.36853C3.34509 1.67592 2.62119 2.14627 2.01688 2.74941C1.41258 3.35255 0.94122 4.07515 0.633052 4.87086C0.282947 5.80182 0.0941109 6.78548 0.0746335 7.77971C0.0173256 9.05982 0 9.46567 0 12.7165C0 15.966 -9.92969e-09 16.3798 0.0746335 17.6533C0.0946246 18.6486 0.282541 19.6307 0.633052 20.5635C0.942085 21.3589 1.4139 22.0812 2.01835 22.6843C2.6228 23.2873 3.3466 23.7579 4.14349 24.0658C5.07299 24.4293 6.0578 24.6318 7.05553 24.6646C8.33896 24.7205 8.74545 24.7378 12 24.7378C15.2546 24.7378 15.6717 24.7378 16.9445 24.6646C17.9402 24.6444 18.9252 24.4559 19.8578 24.1071C20.6545 23.7986 21.378 23.3277 21.9822 22.7244C22.5864 22.1212 23.058 21.3988 23.3669 20.6034C23.7175 19.6719 23.9054 18.6899 23.9254 17.6945C23.9827 16.4144 24 16.0086 24 12.7578C24 9.50692 24 9.09441 23.9254 7.82096C23.9099 6.81267 23.72 5.81464 23.3643 4.87086ZM21.741 17.5548C21.7324 18.3217 21.5922 19.0814 21.3265 19.801C21.1264 20.3185 20.82 20.7884 20.427 21.1805C20.0341 21.5726 19.5632 21.8783 19.0449 22.0778C18.3322 22.3418 17.5793 22.4818 16.8192 22.4916C15.5531 22.5502 15.1959 22.5648 11.9494 22.5648C8.70013 22.5648 8.36828 22.5648 7.07819 22.4916C6.31843 22.4823 5.56596 22.3423 4.85384 22.0778C4.33366 21.8795 3.86095 21.5744 3.46631 21.1822C3.07167 20.79 2.76389 20.3194 2.56286 19.801C2.30091 19.0892 2.16079 18.3384 2.14838 17.5801C2.09107 16.316 2.07774 15.9594 2.07774 12.7178C2.07774 9.47499 2.07774 9.14365 2.14838 7.85423C2.15699 7.08779 2.29719 6.3285 2.56286 5.60938C2.96935 4.55948 3.80231 3.73314 4.85384 3.33127C5.56631 3.06799 6.31856 2.92803 7.07819 2.91743C8.34562 2.86021 8.70147 2.84425 11.9494 2.84425C15.1972 2.84425 15.5304 2.84425 16.8192 2.91743C17.5794 2.92656 18.3323 3.06656 19.0449 3.33127C19.5632 3.53124 20.034 3.8372 20.4269 4.22952C20.8198 4.62184 21.1262 5.09185 21.3265 5.60938C21.5885 6.32123 21.7286 7.072 21.741 7.83027C21.7983 9.09574 21.813 9.45103 21.813 12.6939C21.813 15.9354 21.813 16.284 21.7557 17.5562H21.741V17.5548Z" fill="#5A5A5A"/>
</svg>
