<svg width="16" height="20" viewBox="0 0 16 20" fill="none" xmlns="http://www.w3.org/2000/svg">
<path fillRule="evenodd" clipRule="evenodd" d="M7.44506 18.852L8 19.3333L8.55812 18.8552C9.31998 18.2038 16 12.3658 16 8.09547C16 3.62447 12.4183 0 8 0C3.58173 0 0 3.62447 0 8.09547C0 12.3658 6.68002 18.2037 7.44506 18.852ZM1.72987 8.09543C1.73379 4.59285 4.53873 1.75444 8 1.75048C11.4613 1.75448 14.2662 4.59285 14.2701 8.09543C14.2701 10.7749 10.1604 15.0629 8 17.0252C5.83968 15.0637 1.72987 10.7781 1.72987 8.09543ZM4.82704 8.09541C4.82704 9.86767 6.24681 11.3044 7.99817 11.3044C9.74957 11.3044 11.1693 9.86767 11.1693 8.09541C11.1693 6.32314 9.74954 4.88643 7.99817 4.88643C6.24681 4.88643 4.82704 6.32314 4.82704 8.09541ZM6.41261 8.09537C6.41261 7.20924 7.12249 6.49088 7.99817 6.49088C8.87389 6.49088 9.58374 7.20924 9.58374 8.09537C9.58374 8.9815 8.87385 9.69986 7.99817 9.69986C7.12249 9.69986 6.41261 8.9815 6.41261 8.09537Z" fill="#1C3F8B"/>
</svg>
