<svg width="29" height="31" viewBox="0 0 29 31" fill="none" xmlns="http://www.w3.org/2000/svg">
<g filter="url(#filter0_d_2584_12075)">
<path d="M9.75 7H19.25V5C19.25 3 18.5 2 16.25 2H12.75C10.5 2 9.75 3 9.75 5V7Z" stroke="#292D32" strokeWidth="1.5" stroke-miterlimit="10" strokeLinecap="round" strokeLinejoin="round"/>
<path d="M18.5 15V19C18.5 21 17.5 22 15.5 22H13.5C11.5 22 10.5 21 10.5 19V15H18.5Z" stroke="#292D32" strokeWidth="1.5" stroke-miterlimit="10" strokeLinecap="round" strokeLinejoin="round"/>
<path d="M23.5 10V15C23.5 17 22.5 18 20.5 18H18.5V15H10.5V18H8.5C6.5 18 5.5 17 5.5 15V10C5.5 8 6.5 7 8.5 7H20.5C22.5 7 23.5 8 23.5 10Z" stroke="#292D32" strokeWidth="1.5" stroke-miterlimit="10" strokeLinecap="round" strokeLinejoin="round"/>
<path d="M19.5 15H18.29H9.5" stroke="#292D32" strokeWidth="1.5" stroke-miterlimit="10" strokeLinecap="round" strokeLinejoin="round"/>
<path d="M9.5 11H12.5" stroke="#292D32" strokeWidth="1.5" stroke-miterlimit="10" strokeLinecap="round" strokeLinejoin="round"/>
</g>
<defs>
<filter id="filter0_d_2584_12075" x="-1.5" y="0" width="32" height="32" filterUnits="userSpaceOnUse" color-interpolation-filters="sRGB">
<feBlend mode="normal" in="SourceGraphic" in2="effect1_dropShadow_2584_12075" result="shape"/>
</filter>
</defs>
</svg>
