<svg width="25" height="24" viewBox="0 0 25 24" fill="none" xmlns="http://www.w3.org/2000/svg">
<path d="M12.4907 5.81738C10.8563 5.81738 9.28882 6.46565 8.13311 7.61956C6.9774 8.77348 6.32813 10.3385 6.32812 11.9704C6.32813 13.6023 6.9774 15.1673 8.13311 16.3213C9.28882 17.4752 10.8563 18.1234 12.4907 18.1234C14.1251 18.1234 15.6926 17.4752 16.8483 16.3213C18.004 15.1673 18.6533 13.6023 18.6533 11.9704C18.6533 10.3385 18.004 8.77348 16.8483 7.61956C15.6926 6.46565 14.1251 5.81738 12.4907 5.81738ZM12.4907 15.9664C11.4289 15.9664 10.4106 15.5453 9.65978 14.7956C8.90897 14.046 8.48717 13.0292 8.48717 11.9691C8.48717 10.9089 8.90897 9.89218 9.65978 9.14253C10.4106 8.39289 11.4289 7.97174 12.4907 7.97174C13.5525 7.97174 14.5708 8.39289 15.3217 9.14253C16.0725 9.89218 16.4943 10.9089 16.4943 11.9691C16.4943 13.0292 16.0725 14.046 15.3217 14.7956C14.5708 15.5453 13.5525 15.9664 12.4907 15.9664Z" fill="#CF3339"/>
<path d="M18.8976 7.02615C19.6911 7.02615 20.3343 6.38392 20.3343 5.59169C20.3343 4.79946 19.6911 4.15723 18.8976 4.15723C18.1042 4.15723 17.4609 4.79946 17.4609 5.59169C17.4609 6.38392 18.1042 7.02615 18.8976 7.02615Z" fill="#CF3339"/>
<path d="M23.8643 4.13307C23.5558 3.33757 23.0843 2.61515 22.48 2.01205C21.8758 1.40896 21.152 0.938485 20.3552 0.630738C19.4227 0.281247 18.4376 0.0922703 17.4418 0.0718562C16.1584 0.0159679 15.7519 0 12.4973 0C9.24278 0 8.82563 -1.33843e-07 7.55287 0.0718562C6.55783 0.0912265 5.57342 0.280241 4.64216 0.630738C3.84509 0.938126 3.12119 1.40848 2.51688 2.01161C1.91258 2.61475 1.44122 3.33736 1.13305 4.13307C0.782947 5.06402 0.594111 6.04769 0.574633 7.04192C0.517326 8.32202 0.5 8.72788 0.5 11.9787C0.5 15.2282 0.5 15.642 0.574633 16.9155C0.594625 17.9108 0.782541 18.8929 1.13305 19.8257C1.44208 20.6211 1.9139 21.3434 2.51835 21.9465C3.1228 22.5495 3.8466 23.0201 4.64349 23.328C5.57299 23.6915 6.5578 23.8941 7.55553 23.9268C8.83896 23.9827 9.24545 24 12.5 24C15.7546 24 16.1717 24 17.4445 23.9268C18.4402 23.9066 19.4252 23.7181 20.3578 23.3693C21.1545 23.0608 21.878 22.5899 22.4822 21.9867C23.0864 21.3834 23.558 20.661 23.8669 19.8656C24.2175 18.9341 24.4054 17.9521 24.4254 16.9568C24.4827 15.6766 24.5 15.2708 24.5 12.02C24.5 8.76913 24.5 8.35662 24.4254 7.08317C24.4099 6.07488 24.22 5.07684 23.8643 4.13307ZM22.241 16.817C22.2324 17.5839 22.0922 18.3436 21.8265 19.0632C21.6264 19.5807 21.32 20.0506 20.927 20.4427C20.5341 20.8348 20.0632 21.1405 19.5449 21.34C18.8322 21.6041 18.0793 21.744 17.3192 21.7538C16.0531 21.8124 15.6959 21.827 12.4494 21.827C9.20013 21.827 8.86828 21.827 7.57819 21.7538C6.81843 21.7445 6.06596 21.6045 5.35384 21.34C4.83366 21.1417 4.36095 20.8366 3.96631 20.4444C3.57167 20.0522 3.26389 19.5817 3.06286 19.0632C2.80091 18.3514 2.66079 17.6006 2.64838 16.8423C2.59107 15.5782 2.57774 15.2216 2.57774 11.98C2.57774 8.73719 2.57774 8.40585 2.64838 7.11643C2.65699 6.35 2.79719 5.59071 3.06286 4.87159C3.46935 3.82169 4.30231 2.99534 5.35384 2.59348C6.06631 2.33019 6.81856 2.19024 7.57819 2.17964C8.84562 2.12242 9.20147 2.10645 12.4494 2.10645C15.6972 2.10645 16.0304 2.10645 17.3192 2.17964C18.0794 2.18877 18.8323 2.32877 19.5449 2.59348C20.0632 2.79344 20.534 3.0994 20.9269 3.49172C21.3198 3.88404 21.6262 4.35405 21.8265 4.87159C22.0885 5.58343 22.2286 6.33421 22.241 7.09248C22.2983 8.35795 22.313 8.71324 22.313 11.9561C22.313 15.1976 22.313 15.5462 22.2557 16.8184H22.241V16.817Z" fill="#CF3339"/>
</svg>
