<svg version="1.2" xmlns="http://www.w3.org/2000/svg" viewBox="0 0 500 500" width="500" height="500">
	<title>social_media_varios_otros-svg</title>
	<style>
		.s0 { fill: #c31718 } 
	</style>
	<g id="Layer">
		<path id="Layer" fillRule="evenodd" class="s0" d="m250 500.3c-138.3 0-250-111.7-250-250 0-138.3 111.8-250 250-250 138.3 0 250 111.8 250 250 0 138.3-111.8 250-250 250zm169.8-100.5c0-3.1-0.7-8.7 0-11.2 0-4.4-0.7-8.1-3.8-10.6-5.1-5.1-6.3-10.1-5.7-16.9 0-0.7 0-1.9 0-2.6 0.6-4.4 0-7.4-3.8-10.6-3.8-3.8-5.1-9.3-1.9-13.1 7.4-9.3 6.2-18.2-0.6-26.9-7.5-9.5-10-19.5-6.8-30.7 0.6-1.9-0.7-3.8-3.2-3.8-2.4 0-5.6 0-8.1-0.6-1.9 0-3.1-1.3-4.4-1.9-6.3-5.1-10.8-5.1-17.6-0.7-1.9 0.7-3.8 1.3-5.7 1.3-4.4 0-8.7-0.6-13.1 0.6-6.3 1.9-10 1.3-14.4-3.8-3-3.1-5.5-6.8-8.7-9.3-8.1-7-10.6-15.7-8.7-25.6 0-0.7-0.6-1.9 0-2.6 0-0.6 0.6-1.9 1.3-2.5 3.8-1.9 3.1-4.9 3.1-8.1-3.8 0.5-5-2.5-5.7-5.7-1.2-3.8 1.9-3.8 3.8-5.7 5.1-3.8 10.6-8 16.3-11.8 4.5-2.6 5.7-4.9 5.1-9.4 0-2.5-0.6-5.7 0-4.4 4.4-3 9.3-5.5 14.4-6.8 4.4-1.3 9.3 1.3 13.1-0.6 8.7-5.1 18.2-3.8 26.9-5.1 1.8-0.6 3.7 0 6.2 0 0 3 0.6 5.5 0 8.1 0 3.1 1.3 5 4.4 5.7 6.2 1.1 12.5 3.6 19.3 6.1 2.6 1.3 4.4 1.3 4.4-2.5 0-1.2 1.3-3.8 1.9-3.8 4.5-0.6 9.4-2.5 14.4 1.9 1.9 2.5 5.6 4.4 8.7 5.1 4.5 1.2 9.4 0.6 13.8 0.6 0.6 0 0.6 0 1.3 0-1.8-6.2-3.7-13.1-6.2-19.3-1.3-0.6-2.5-0.6-3.8-0.6-7.4 0.6-10.6-2.6-11.9-10.6-0.6-1.9-0.6-3.2-1.2-5.7-3 1.1-6.2 2.4-6.8 6.2 0 3.1-1.3 6.1-2.6 9.9-3-5-9.3-7.4-8.7-13.1 0-4.3-1.2-6.8-5-9.3-1.9-1.3-3.2-1.9-4.5-3.8-3.1-4.5-7.4-3.2-11.8-2.6 0 10.6 9.9 11.3 15 16.3-0.6 1.9-1.9 3.2-1.3 5.1 0.5 4.3-2.5 5.5-5.6 6.2-3.1 0-6.2-1.3-6.9-5.1 6.9-0.6 6.9-0.6 8.1-3.2-5.5-6.3-14.9-8.2-18.7-16.9-4.4 3.8-7.4 7.6-13.1 5.1-0.6 0-1.9 1.2-2.5 1.9-3.7 4.4-7.5 7.4-9.4 12.5-1.9 6.8-6.8 6.8-11.8 6.8-2.4 0-4.3 0.6-6.8 0-5.6-1.3-8.7-2.4-8.7-8.1 0-2.4-0.7-4.3-0.7-6.2-0.6-4.9 1.8-7.4 6.2-8.7 5.1-1.2 10 0 15 0.7 3.2 0.6 5.7-2.6 4.5-5.1-0.7-1.3-2.6-1.9-4.5-3.2 0-1.2 0.7-2.5 0.7-3.8 0-4.2 1.7-7.4 6.8-6.8 4.9 0 8-3 9.9-6.8 3.8-6.8 9.5-7.4 16.3-6.8 2.4 0 4.9 0 7.5 0.6-1.3-4.4-1.3-7.4-1.9-11.2-1.9 0.6-3.2 1.3-5.1 1.9-3.1 1.3-5 1.3-5.7-2.5-0.6-3.2-1.9-5.1-5.7-5.1-0.6 0-1.2-1.2-1.9-1.9-0.6-3 1.3-6.8 5.1-8.7 2.4-1.3 5.5-2.5 8.1-3.8 1.9-1.2 2.5-2.5 3.1-3.8 1.4 1 3.2 2.3 5.1 4-40.4-37.8-95.4-61.4-155.1-61.4-48.1 0-93.8 15.6-128.1 38.1 3.8 1.3 8 1.3 11.8 3.2 3.8 1.1 9.4 0.5 11.9 6.2 0 0.6 0 0.6 0.6 0.6 4.5 0 8.1 0.6 13.2 0.6-2.6-8.2-10-2.5-13.8-5 1.7-5.1 0.6-5.1-5.1-5.1q-2.8 0-5.7 0c-0.2-1.3-0.3-1.8-0.4-2 3.7-2.6 7.3-6.1 11-8.6 4.5-2.4 13.8-0.6 17 3.8 4.4 5.7 10.6 6.3 16.3 1.3 2.3-2.6 4.2-3.2 6.1-0.7-4.2 6.8-10.6 9.4-18.6 8.1 0.6 3 1.2 7.4 1.9 7.4 4.4 0 9.3 0.7 13.1-1.2 1.7-1.3 4.3-2.6 6.8-2.6 4.4 0 5.7-1.9 5.1-5.7q-1.9-0.9-5.7-1.9c1.9-2.5 3.1-5 5-5 5.1-1.3 10.6-0.7 15.7-0.7-1.9 2.6-3.8 3.8-5.1 5.7-1.2 1.8-1.2 5.6-0.6 6.2 1.9 1.3 4.9 1.9 8.1 3.2 0-3 0-5.6 0-8.1 0-1.3 0-2.5 0.6-3.2 6.8-5 15-6.9 23.1-5 6.3 1.2 12.5 4.9 18.2 7.4 1.3 0 2.5 1.9 2.5 2.5-0.6 4.9 0.5 8.1 6.2 8.1-0.6 4.3-3 6.8-7.4 6.2-3.7-0.7-6.2 0.6-6.8 4.4-0.7 1.3-1.3 1.9-1.9 3.2-6.8-1.3-13.2-3.2-21.2-5.1 6.9-3.6 11.8-6.2 17.5-9.3-2.4-2.6-4.9-5.1-6.8-5.1-6.3 0-13.1-1.1-18.2 5.1-0.6 1.2-1.9 1.9-3.8 2.5-1.2 0.6-3.1 0.6-5 1.3 0.6 1.9 1.2 3.1 1.9 5-3.8 1.9-6.8 3.8-10.6 5.7-1.3-3-1.3-4.9-1.9-6.8h-0.7c-10.6 1.9-19.4 8.7-28.1 13.8-0.7 0-1.3 1.3-1.3 1.9 0 5.5 3.6 10 8.7 11.2 1.3 0 3.2 0.7 5.1 0.7 4.4 0 5.7 1.9 5 5.7 0 2.3 0 4.9 0 7.4 4.9 0.6 6.2-1.9 7.5-4.4 1.2-2.4 1.9-5.6 5.7-6.8 9.3-1.9 8.7-2.6 8.7-11.9 0-0.6 0-0.6 0-1.3 0-6.8 4.4-10.6 11.2-8.7 3 0.7 5.5 1.3 8.1 1.9 3.8 0 5 1.9 4.4 5.7 0 1.9 0 3.8 0.6 5.7 1.9-0.6 3.8-0.6 5.7-1.2 2.6-1.3 4.9-2.6 8.7-4.5 0.7 2.6 0.7 3.2 0.7 5.1 0 5 1.1 9.3 6.8 11.9 1.2 0.6 1.9 2.5 2.5 4.4 1.3 3.6 0 6.2-4.4 6.8-1.3 0.6-2.6 1.9-3.8 2.5 1.2 1.3 2.5 2.5 3.8 3.2 1.2 0.6 3.8 1.2 5 2.5 1.3 1.3 1.3 3.2 1.9 5.1-1.2 0-2.5 1.2-3.8 0.6-3-0.6-6.1-1.9-8.7-2.5-5-1.1-5-3-1.9-6.8 0.7-0.7 1.3-3.2 0.7-3.8-1.3-1.3-2.6-1.3-4.5 0.6-1.9 3.2-9.3 3.2-11.8 0.6-2.4-1.2-5.6-1.9-8.1-1.9-0.6 0-1.9 3.2-1.9 3.8 0 0.7 1.3 1.9 2.5 2.6 1.3 1.2 3.2 1.2 5.1 1.9-1.9 1.9-1.9 4.4-5.7 2.5-1.3-0.6-3.8 0-5.7 1.3-5.7 3.8-9.5 9.9-15.7 13.7-6.8 4.5-12.5 10.6-18.6 16.3-0.7 0.7-1.3 1.9-1.3 2.6 0 4.9-3 6.8-6.8 9.3-1.7 1.9-4.3 2.5-6.2 4.4-5.5 4.5-10.6 8.3-8 16.3 0.6 1.3 0 3.2 0 5.7-4.3-2.5-10.6-3.1-9.4-9.9 0-0.7-2.5-2.6-3.8-2.6-6.8 0-14.4-0.6-21.2 0.7-5.7 1.2-11.8 4.2-16.3 8-3.6 3.2-4.9 10-7.4 15.1-1.9 5 0.6 8 3.1 11.8 1.3 1.9 10.6 1.9 13.2 0 4.4-3.8 9.3-6.8 14.4-9.9 4.3 6.3-1.9 9.9-2.6 15.6 3.1 0.7 5.6 1.3 8.8 1.9 2.5 0.7 3.7 1.9 3.7 4.4 0 5.1 0.7 8.8 0.7 13.8q0 3.8 3.8 3.8c1.2 0 2.5 0 3.8 0.6 8.2 3.2 13.7 0.7 18.2-6.8 1.9-3.8 4.9-5.7 9.9-3.8 3.8 1.9 8.1 0.7 10.6 5.1 3.2 5.7 13.8 5.1 17.6 0 6.2 0.6 8.7 4.9 11.2 10 2.6 3.8 5.6 6.9 10.6 5.7 7.5-1.3 10.6 3 12.5 8.7 1.3 2.3 1.3 5.5 1.3 8 0 2.6 1.3 3.8 3.8 5.1 8.2 4.4 17.6 5.7 27.5 5.1 3 0 4.9 0.6 6.8 3.8 1.9 4.2 4.9 7.4 10 8 0.6 0 1.9 1.9 1.9 2.6 0 2.3-0.6 6.1-2.5 8-6.2 6.2-9.4 14.4-9.4 23.8 0 1.7-0.6 4.2-0.6 6.8 0.6 5-2.4 8.7-6.2 11.8-3.8 2.6-8 1.9-11.8 1.9-5.6 0-10 4.3-8.7 10 0.6 2.4 1.9 5.5 1.9 8.1 0 1.7-0.7 4.3-1.9 6.2-5.1 7.4-10.6 15-15.7 22.4q-0.9 1-1.9 1.9c-5.1 2.4-10.6 4.3-16.3 6.8-1.9 0.7-3.8 1.3-5.7 2.6 1.9 1.2 3.2 2.5 5.1 3.8 0 0.6 0.6 0.6 1.2 1.9-1.1 2.5-3.6 5.5-6.1 9.3 1.9 1.3 3.8 3.2 5.7 3.2 4.4 0 5.7 1.8 3.8 5-3 7.6-1.1 12.5 5.7 16.3l0.6 0.6c0.6 1.3 1.9 2.6 1.3 3.8-0.7 0.7-1.9 1.9-3.2 1.9-7 0-13.1 0-17.6-5.7-1.2-1.2-3.1-1.9-3.8-3.1-5-6.8-8.7-14.4-13.7-21.2-1.3-0.7-0.7-1.9-0.7-3.2 0-3.8 0-6.8 0.7-10.6 0-3.6 0-5.5-2.6-8.1-5.7-5-5.7-10.7-3.8-16.9 0-1.3 0.7-1.9 0.7-3.2 0.6-3 1.9-5.5-2.6-6.8-0.6 0-1.2-2.5-1.2-3.8-0.7-8-0.7-16.9 0-25.6 0.6-8.2-2.6-12.5-8.7-16.3-6.4-3.1-14.4-5-15.7-14.4 0-0.6-1.3-1.9-1.9-2.5-2.4-3.2-4.9-6.8-8.1-10-4.4-3.8-6.9-8.8-4.4-15 1.3-1.3 0.6-3.2 0.6-5.1 0-5.7 1.8-9.3 6.8-11.8 4.5-1.9 7-4.3 5.7-10-1.2-8.1-1.2-8.1-9.3-8.7-5.1-0.6-10 0-13.8-5.7-4.9-8.1-11.8-13.1-21.8-13.8-0.6 0-1.3-1.2-2.5-2.5-1.3-1.3-1.3-3.8-1.9-3.8-1.8 0-4.3 0-6.2 0.6-0.6 0-1.9 0.7-2.5 0.7-4.5-1.3-9.4-2.6-14.4-3.8-1.9-1.3-10-10.6-10-13.2 0-0.6 0-1.2 0.6-1.9 3.2-4.2 1.3-6.8-1.2-9.9-5.6-7.5-11.3-13.8-11.3-23.8 0-3.1-2.5-3.1-5-2.5-0.7 9.3 3 16.9 8 23.7 2.6 2.4 3.2 4.9 0.7 7.5-1.3 1.9-6.2-0.7-8.1-3.2-5.5-8.1-9.3-16.3-7.4-26.3 0.6-0.6 0.6-1.9 0-2.5-0.7-0.6-1.3-2.5-1.9-2.5-5.6-1.3-7.5-4.3-8.1-8.7-9.3 24.3-14.4 51.9-14.4 79.4 0 124.4 100.6 225 225 225 67.6 0 128.2-30.1 169.8-75.5zm-286.1-338.1c0 0.1 0 0.2 0 0q0 0 0 0zm272.6 26.4q-0.9-0.9-1.7-1.7 0.8 0.9 1.7 1.7zm-272.4-26.5q-0.1 0-0.2 0.1c0-0.2 0.1-0.4 0.2-0.1z"/>
		<path id="Layer" class="s0" d="m362.5 113.4c1.9 1.9 2.5 3.8 0 5.1-5.7 1.3-3.8 5.1-3.8 8.1 11.2 1.9 15.7 0.6 18.7-5.7-8.7-3.8-11.3-11.9-12.5-20.6-1.9 0.6-3.8 0.6-5.1 1.3-1.9 1.2-3.8 2.5-3.8 4.4-0.6 1.3 1.9 3.2 2.5 4.4 0.2 1.1 2.7 1.8 4 3z"/>
		<path id="Layer" class="s0" d="m347.5 123.4c3.1-1.9 5.7-3.8 8.7-5.7 0.6-0.6 0.6-1.9 1.9-3.2-0.7-0.6-1.9-2.5-2.6-2.5-2.5 0-6.8-0.6-8 1.3-2.6 2.5-3.2 5.7-4.5 9.3 1.5 0.2 3.2 1.4 4.5 0.8z"/>
		<path id="Layer" class="s0" d="m232 138.4c-2.6 1.3-5.1 3.2-8.1 5.1 1.3 3.8 3.8 4.4 6.2 1.9 2.5-1.9 3.8-4.4 6.8-6.8-2.6-0.2-3.7-0.2-4.9-0.2z"/>
		<path id="Layer" class="s0" d="m213.8 146.5q0.9 1 1.9 1.9c1.2-0.6 2.5-1.9 3.8-2.5-0.7-0.7-1.9-1.9-1.9-2.6-1.9 0-3.2 1.9-3.8 3.2z"/>
	</g>
</svg>