<?xml version="1.0" encoding="UTF-8" standalone="no" ?>
<!DOCTYPE svg PUBLIC "-//W3C//DTD SVG 1.1//EN" "http://www.w3.org/Graphics/SVG/1.1/DTD/svg11.dtd">
<svg xmlns="http://www.w3.org/2000/svg" xmlns:xlink="http://www.w3.org/1999/xlink" version="1.1" width="359.7" height="137.2" viewBox="0 0 359.7 137.2" xml:space="preserve">
<desc>Created with Fabric.js 5.3.0</desc>
<defs>
</defs>
<g transform="matrix(1.7153183208 0 0 1.7153182945 179.85 68.6)" id="4OGUW6M5RmtPURkyWM2ZI"  >
<g style=""   >
		<g transform="matrix(1 0 0 1 -88.95 -6.25)" id="pbusblFBht-aaZPMJnptj"  >
<path style="stroke: none; strokeWidth: 1; stroke-dasharray: none; strokeLinecap: butt; stroke-dashoffset: 0; strokeLinejoin: miter; strokeMiterlimit: 4; fill: rgb(194,55,57); fillRule: nonzero; opacity: 1;"  transform=" translate(-90.9, -62.35)" d="M 105 44.9 L 90.7 79.8 L 76.8 79.8 L 80.8 44.9 L 90.3 44.9 L 86.5 70.4 C 87.2 68.5 88.9 64 91.4 56.7 C 92.80000000000001 52.7 94.2 48.7 95.60000000000001 44.900000000000006 L 105 44.900000000000006 z" strokeLinecap="round" />
</g>
		<g transform="matrix(1 0 0 1 -66.24375 -6.15)" id="jK61GUhPeuz69mHwu49XU"  >
<path style="stroke: none; strokeWidth: 1; stroke-dasharray: none; strokeLinecap: butt; stroke-dashoffset: 0; strokeLinejoin: miter; strokeMiterlimit: 4; fill: rgb(194,55,57); fillRule: nonzero; opacity: 1;"  transform=" translate(-113.60625, -62.45)" d="M 125.8 63 L 112 63 L 110 70.5 C 109.6 72.1 109.4 73.1 109.5 73.5 C 109.6 74 110 74.2 110.6 74.2 C 111.39999999999999 74.2 112 73.9 112.5 73.3 C 112.9 72.7 113.4 71.5 113.8 69.8 L 115 65.2 L 125.1 65.2 L 124.39999999999999 67.8 C 123.8 70 123.19999999999999 71.6 122.69999999999999 72.8 C 122.1 74 121.19999999999999 75.2 119.79999999999998 76.5 C 118.39999999999998 77.8 116.89999999999998 78.8 115.19999999999999 79.5 C 113.49999999999999 80.2 111.49999999999999 80.5 109.19999999999999 80.5 C 106.99999999999999 80.5 105.1 80.2 103.49999999999999 79.5 C 101.99999999999999 78.9 100.89999999999999 78 100.19999999999999 76.8 C 99.49999999999999 75.7 99.19999999999999 74.39999999999999 99.19999999999999 73.1 C 99.19999999999999 71.69999999999999 99.49999999999999 69.8 100.19999999999999 67.19999999999999 L 103 57 C 103.8 53.9 104.9 51.5 106.2 49.8 C 107.5 48 109.2 46.699999999999996 111.3 45.8 C 113.39999999999999 44.9 115.7 44.4 118.1 44.4 C 121.1 44.4 123.39999999999999 45 125 46.1 C 126.6 47.2 127.6 48.7 127.9 50.6 C 128.20000000000002 52.5 127.9 55.1 127 58.5 L 125.8 63 z M 116.6 57.3 L 117.3 54.8 C 117.8 53 118 51.8 117.89999999999999 51.3 C 117.8 50.8 117.49999999999999 50.5 116.89999999999999 50.5 C 116.19999999999999 50.5 115.6 50.7 115.39999999999999 51.2 C 115.1 51.6 114.69999999999999 52.900000000000006 114.19999999999999 54.800000000000004 L 113.49999999999999 57.300000000000004 L 116.6 57.300000000000004 z" strokeLinecap="round" />
</g>
		<g transform="matrix(1 0 0 1 -38.95 -6.65)" id="PKqZwrhAAjxLlF62C98aE"  >
<path style="stroke: none; strokeWidth: 1; stroke-dasharray: none; strokeLinecap: butt; stroke-dashoffset: 0; strokeLinejoin: miter; strokeMiterlimit: 4; fill: rgb(194,55,57); fillRule: nonzero; opacity: 1;"  transform=" translate(-140.9, -61.95)" d="M 144.9 44.9 L 143.9 48.1 C 145 46.800000000000004 146.20000000000002 45.9 147.5 45.2 C 148.8 44.6 150.2 44.2 151.6 44.2 C 153.4 44.2 154.79999999999998 44.6 155.7 45.5 C 156.6 46.4 157.1 47.4 157.1 48.7 C 157.1 50 156.7 52.2 155.79999999999998 55.2 L 149.2 79.7 L 138.6 79.7 L 145.1 55.5 C 145.7 53.1 146.1 51.6 146 51.1 C 146 50.6 145.6 50.300000000000004 144.9 50.300000000000004 C 144.1 50.300000000000004 143.6 50.6 143.20000000000002 51.2 C 142.8 51.800000000000004 142.3 53.400000000000006 141.60000000000002 56.1 L 135.3 79.7 L 124.70000000000002 79.7 L 134.00000000000003 44.800000000000004 L 144.9 44.800000000000004 z" strokeLinecap="round" />
</g>
		<g transform="matrix(1 0 0 1 -14.4094750193 -8.55)" id="GEUefsxQj-4XfZWEMY9G2"  >
<path style="stroke: none; strokeWidth: 1; stroke-dasharray: none; strokeLinecap: butt; stroke-dashoffset: 0; strokeLinejoin: miter; strokeMiterlimit: 4; fill: rgb(194,55,57); fillRule: nonzero; opacity: 1;"  transform=" translate(-165.4405249807, -60.05)" d="M 174.7 40.3 L 173.2 45.8 L 176.1 45.8 L 174.6 51.3 L 171.7 51.3 L 166.7 70 C 166.1 72.3 165.89999999999998 73.6 166 73.8 C 166.2 74.1 167.1 74.2 168.9 74.2 L 167.4 79.8 L 163.1 79.8 C 160.7 79.8 159 79.7 158 79.5 C 157 79.3 156.2 78.8 155.6 78.1 C 155 77.39999999999999 154.7 76.5 154.79999999999998 75.6 C 154.89999999999998 74.69999999999999 155.39999999999998 72.5 156.29999999999998 69 L 160.99999999999997 51.3 L 158.69999999999996 51.3 L 160.19999999999996 45.8 L 162.49999999999997 45.8 L 163.99999999999997 40.3 L 174.7 40.3 z" strokeLinecap="round" />
</g>
		<g transform="matrix(1 0 0 1 5.2215334478 -6.15)" id="P1scvKdgTFNXp3J0PqltI"  >
<path style="stroke: none; strokeWidth: 1; stroke-dasharray: none; strokeLinecap: butt; stroke-dashoffset: 0; strokeLinejoin: miter; strokeMiterlimit: 4; fill: rgb(194,55,57); fillRule: nonzero; opacity: 1;"  transform=" translate(-185.0715334478, -62.45)" d="M 184.5 58.5 L 174.5 58.5 L 175.1 56.2 C 175.79999999999998 53.5 176.7 51.400000000000006 177.7 50 C 178.7 48.5 180.29999999999998 47.2 182.5 46.1 C 184.7 45 187.3 44.4 190.3 44.4 C 193.9 44.4 196.4 45 197.9 46.3 C 199.4 47.599999999999994 200.1 49.099999999999994 199.9 51 C 199.8 52.9 198.9 56.7 197.4 62.4 L 192.70000000000002 79.9 L 182.4 79.9 L 183.20000000000002 76.80000000000001 C 182.20000000000002 78.00000000000001 181.10000000000002 79.00000000000001 179.9 79.60000000000001 C 178.70000000000002 80.2 177.4 80.50000000000001 176 80.50000000000001 C 174.1 80.50000000000001 172.6 80.00000000000001 171.3 78.90000000000002 C 170 77.90000000000002 169.9 75.60000000000002 170.8 72.10000000000002 L 171.60000000000002 69.20000000000002 C 172.3 66.60000000000002 173.20000000000002 64.80000000000001 174.3 63.90000000000002 C 175.4 63.00000000000002 177.70000000000002 61.90000000000002 181.3 60.60000000000002 C 185.20000000000002 59.200000000000024 187.3 58.300000000000026 187.60000000000002 57.800000000000026 C 188.00000000000003 57.300000000000026 188.40000000000003 56.40000000000003 188.70000000000002 54.90000000000003 C 189.20000000000002 53.10000000000003 189.4 51.90000000000003 189.20000000000002 51.300000000000026 C 189.10000000000002 50.700000000000024 188.70000000000002 50.50000000000003 188.10000000000002 50.50000000000003 C 187.40000000000003 50.50000000000003 186.90000000000003 50.70000000000003 186.60000000000002 51.20000000000003 C 186.3 51.70000000000003 185.90000000000003 52.900000000000034 185.40000000000003 54.80000000000003 L 184.5 58.5 z M 186.6 63.2 C 184.6 64.4 183.29999999999998 65.5 182.79999999999998 66.3 C 182.29999999999998 67.1 181.79999999999998 68.39999999999999 181.39999999999998 69.89999999999999 C 180.89999999999998 71.69999999999999 180.7 72.89999999999999 180.79999999999998 73.39999999999999 C 180.89999999999998 73.89999999999999 181.29999999999998 74.19999999999999 181.99999999999997 74.19999999999999 C 182.69999999999996 74.19999999999999 183.19999999999996 73.99999999999999 183.49999999999997 73.6 C 183.79999999999998 73.19999999999999 184.19999999999996 72.1 184.69999999999996 70.39999999999999 L 186.6 63.2 z" strokeLinecap="round" />
</g>
		<g transform="matrix(1 0 0 1 26.2 -7.65)" id="c4r4VPA5kt087XY0DXU-M"  >
<path style="stroke: none; strokeWidth: 1; stroke-dasharray: none; strokeLinecap: butt; stroke-dashoffset: 0; strokeLinejoin: miter; strokeMiterlimit: 4; fill: rgb(194,55,57); fillRule: nonzero; opacity: 1;"  transform=" translate(-206.05, -60.95)" d="M 217 44.9 L 209.6 72.5 C 208.7 75.7 208.1 77.9 207.6 79.1 C 207.2 80.19999999999999 206.5 81.3 205.6 82.1 C 204.7 83 203.6 83.6 202.4 84 C 201.20000000000002 84.4 199.4 84.6 197.1 84.6 L 193 84.6 L 194.5 79 C 195.8 79 196.5 78.9 196.7 78.6 C 196.89999999999998 78.3 197.5 76.6 198.29999999999998 73.3 L 205.89999999999998 44.8 L 217 44.8 z M 219.1 37.3 L 217.6 42.8 L 206.7 42.8 L 208.2 37.3 L 219.1 37.3 z" strokeLinecap="round" />
</g>
		<g transform="matrix(1 0 0 1 49.65 -6.8)" id="XHK2Rs7FBFdSCTwS3UNZ3"  >
<path style="stroke: none; strokeWidth: 1; stroke-dasharray: none; strokeLinecap: butt; stroke-dashoffset: 0; strokeLinejoin: miter; strokeMiterlimit: 4; fill: rgb(255,255,255); fillRule: nonzero; opacity: 1;"  transform=" translate(-229.5, -61.8)" d="M 243 56.7 L 240.7 65.2 C 239.89999999999998 68.3 239.1 70.60000000000001 238.39999999999998 72.10000000000001 C 237.7 73.60000000000001 236.7 74.9 235.29999999999998 76.2 C 233.89999999999998 77.5 232.29999999999998 78.4 230.6 79 C 228.79999999999998 79.6 226.9 79.9 224.79999999999998 79.9 C 222.49999999999997 79.9 220.49999999999997 79.60000000000001 218.99999999999997 79.10000000000001 C 217.49999999999997 78.60000000000001 216.49999999999997 77.80000000000001 215.79999999999998 76.80000000000001 C 215.2 75.80000000000001 214.89999999999998 74.50000000000001 214.89999999999998 73.00000000000001 C 214.89999999999998 71.50000000000001 215.29999999999998 69.30000000000001 216.09999999999997 66.30000000000001 L 218.49999999999997 57.40000000000001 C 219.39999999999998 54.20000000000001 220.39999999999998 51.600000000000016 221.59999999999997 49.80000000000001 C 222.79999999999995 48.000000000000014 224.39999999999998 46.500000000000014 226.59999999999997 45.40000000000001 C 228.69999999999996 44.30000000000001 231.19999999999996 43.70000000000001 233.99999999999997 43.70000000000001 C 236.39999999999998 43.70000000000001 238.29999999999998 44.10000000000001 239.89999999999998 44.80000000000001 C 241.39999999999998 45.500000000000014 242.49999999999997 46.40000000000001 243.09999999999997 47.60000000000001 C 243.69999999999996 48.70000000000001 243.99999999999997 49.900000000000006 244.09999999999997 51.10000000000001 C 244 52.4 243.6 54.3 243 56.7 M 233.1 54.1 C 233.6 52.300000000000004 233.79999999999998 51.2 233.7 50.7 C 233.6 50.2 233.29999999999998 50 232.6 50 C 232 50 231.5 50.2 231.2 50.7 C 230.89999999999998 51.2 230.5 52.300000000000004 230 54.1 L 225.8 69.8 C 225.4 71.39999999999999 225.20000000000002 72.5 225.3 73 C 225.4 73.5 225.70000000000002 73.7 226.3 73.7 C 226.9 73.7 227.4 73.5 227.70000000000002 73 C 228.00000000000003 72.5 228.4 71.6 228.8 70.1 L 233.1 54.1 z" strokeLinecap="round" />
</g>
		<g transform="matrix(1 0 0 1 49.65 -6.65)" id="gzcG29fYnDrw4ZYDp_kcF"  >
<path style="stroke: none; strokeWidth: 1; stroke-dasharray: none; strokeLinecap: butt; stroke-dashoffset: 0; strokeLinejoin: miter; strokeMiterlimit: 4; fill: rgb(194,55,57); fillRule: nonzero; opacity: 1;"  transform=" translate(-229.5, -61.95)" d="M 224.7 80.8 C 222.29999999999998 80.8 220.29999999999998 80.5 218.7 80 C 217 79.4 215.79999999999998 78.5 215.1 77.3 C 214.4 76.1 214.1 74.7 214.1 73.1 C 214.1 71.5 214.5 69.3 215.29999999999998 66.19999999999999 L 217.7 57.29999999999999 C 218.6 53.99999999999999 219.7 51.39999999999999 220.89999999999998 49.49999999999999 C 222.2 47.599999999999994 223.89999999999998 45.99999999999999 226.2 44.79999999999999 C 228.39999999999998 43.59999999999999 231 43.09999999999999 234 43.09999999999999 C 236.5 43.09999999999999 238.6 43.499999999999986 240.2 44.19999999999999 C 241.89999999999998 44.999999999999986 243.1 45.999999999999986 243.79999999999998 47.29999999999999 C 244.49999999999997 48.49999999999999 244.79999999999998 49.79999999999999 244.89999999999998 51.19999999999999 C 244.89999999999998 52.499999999999986 244.59999999999997 54.39999999999999 243.89999999999998 56.89999999999999 L 241.59999999999997 65.39999999999999 C 240.79999999999995 68.6 239.99999999999997 70.89999999999999 239.19999999999996 72.39999999999999 C 238.49999999999997 73.89999999999999 237.29999999999995 75.39999999999999 235.89999999999995 76.69999999999999 C 234.49999999999994 77.99999999999999 232.79999999999995 78.99999999999999 230.89999999999995 79.69999999999999 C 228.9 80.4 226.8 80.8 224.7 80.8 M 233.9 44.6 C 231.20000000000002 44.6 228.8 45.1 226.8 46.2 C 224.8 47.2 223.20000000000002 48.6 222.10000000000002 50.300000000000004 C 221.00000000000003 52.00000000000001 220.00000000000003 54.50000000000001 219.10000000000002 57.7 L 216.70000000000002 66.60000000000001 C 215.9 69.50000000000001 215.50000000000003 71.7 215.50000000000003 73.10000000000001 C 215.50000000000003 74.4 215.80000000000004 75.60000000000001 216.30000000000004 76.50000000000001 C 216.80000000000004 77.40000000000002 217.80000000000004 78.10000000000001 219.10000000000005 78.50000000000001 C 220.50000000000006 79.00000000000001 222.40000000000006 79.20000000000002 224.60000000000005 79.20000000000002 C 226.60000000000005 79.20000000000002 228.50000000000006 78.90000000000002 230.20000000000005 78.30000000000001 C 231.90000000000003 77.70000000000002 233.40000000000003 76.80000000000001 234.70000000000005 75.60000000000001 C 236.00000000000006 74.4 237.00000000000006 73.10000000000001 237.70000000000005 71.7 C 238.40000000000003 70.3 239.10000000000005 68 240.00000000000006 64.9 L 242.30000000000007 56.400000000000006 C 242.90000000000006 54.00000000000001 243.30000000000007 52.2 243.20000000000007 51.10000000000001 C 243.20000000000007 50.00000000000001 242.90000000000006 49.00000000000001 242.30000000000007 47.900000000000006 C 241.80000000000007 46.900000000000006 240.80000000000007 46.10000000000001 239.40000000000006 45.50000000000001 C 238 44.9 236.2 44.6 233.9 44.6 M 226.2 74.6 C 225.2 74.6 224.5 74.1 224.39999999999998 73.19999999999999 C 224.29999999999998 72.79999999999998 224.29999999999998 71.99999999999999 224.99999999999997 69.69999999999999 L 229.19999999999996 53.89999999999999 C 229.89999999999995 51.39999999999999 230.29999999999995 50.599999999999994 230.49999999999997 50.29999999999999 C 230.99999999999997 49.59999999999999 231.69999999999996 49.29999999999999 232.59999999999997 49.29999999999999 C 234.09999999999997 49.29999999999999 234.39999999999998 50.29999999999999 234.39999999999998 50.69999999999999 C 234.49999999999997 51.09999999999999 234.39999999999998 51.89999999999999 233.79999999999998 54.39999999999999 L 229.49999999999997 70.5 C 229.09999999999997 72.1 228.69999999999996 73.1 228.29999999999998 73.7 C 227.8 74.2 227.1 74.6 226.2 74.6 M 226 73 C 226 73 226.1 73 226.3 73 C 226.8 73 227 72.8 227.10000000000002 72.6 C 227.3 72.39999999999999 227.60000000000002 71.8 228.10000000000002 69.89999999999999 L 232.40000000000003 53.79999999999999 C 233.00000000000003 51.49999999999999 233.00000000000003 50.89999999999999 233.00000000000003 50.69999999999999 L 233.00000000000003 50.69999999999999 C 233.00000000000003 50.69999999999999 232.90000000000003 50.69999999999999 232.70000000000002 50.69999999999999 C 232.20000000000002 50.69999999999999 232.00000000000003 50.89999999999999 231.9 51.09999999999999 C 231.70000000000002 51.29999999999999 231.4 51.999999999999986 230.8 54.19999999999999 L 226.5 70 C 225.9 72.1 225.9 72.8 226 73 C 225.9 73 226 73 226 73" strokeLinecap="round" />
</g>
		<g transform="matrix(1 0 0 1 76.75 -7)" id="v7XiVQEFs5INv50nPZDsN"  >
<path style="stroke: none; strokeWidth: 1; stroke-dasharray: none; strokeLinecap: butt; stroke-dashoffset: 0; strokeLinejoin: miter; strokeMiterlimit: 4; fill: rgb(255,255,255); fillRule: nonzero; opacity: 1;"  transform=" translate(-256.6, -61.6)" d="M 260.6 44.5 L 259.6 47.7 C 260.70000000000005 46.400000000000006 261.90000000000003 45.5 263.20000000000005 44.800000000000004 C 264.50000000000006 44.2 265.90000000000003 43.800000000000004 267.30000000000007 43.800000000000004 C 269.1000000000001 43.800000000000004 270.50000000000006 44.2 271.4000000000001 45.1 C 272.30000000000007 46 272.80000000000007 47 272.80000000000007 48.300000000000004 C 272.80000000000007 49.6 272.4000000000001 51.800000000000004 271.50000000000006 54.800000000000004 L 264.90000000000003 79.30000000000001 L 254.30000000000004 79.30000000000001 L 260.80000000000007 55.10000000000001 C 261.4000000000001 52.70000000000001 261.80000000000007 51.20000000000001 261.70000000000005 50.70000000000001 C 261.70000000000005 50.20000000000001 261.30000000000007 49.90000000000001 260.6 49.90000000000001 C 259.8 49.90000000000001 259.3 50.20000000000001 258.90000000000003 50.80000000000001 C 258.50000000000006 51.40000000000001 258.00000000000006 53.000000000000014 257.3 55.70000000000001 L 251 79.4 L 240.4 79.4 L 249.8 44.50000000000001 L 260.6 44.50000000000001 z" strokeLinecap="round" />
</g>
		<g transform="matrix(1 0 0 1 76.6 -6.9)" id="7rMzXdY5FHPCrSzQEoLUt"  >
<path style="stroke: none; strokeWidth: 1; stroke-dasharray: none; strokeLinecap: butt; stroke-dashoffset: 0; strokeLinejoin: miter; strokeMiterlimit: 4; fill: rgb(194,55,57); fillRule: nonzero; opacity: 1;"  transform=" translate(-256.45, -61.7)" d="M 265.5 80.1 L 253.3 80.1 L 260 55 C 260.8 51.8 260.9 51 260.9 50.8 L 260.9 50.8 C 260.9 50.8 260.79999999999995 50.8 260.59999999999997 50.8 C 260.09999999999997 50.8 259.79999999999995 51 259.59999999999997 51.3 C 259.4 51.699999999999996 258.9 52.8 258.09999999999997 56 L 251.59999999999997 80.2 L 239.39999999999998 80.2 L 249.2 43.800000000000004 L 261.7 43.800000000000004 L 261.2 45.2 C 261.7 44.800000000000004 262.3 44.5 262.8 44.2 C 264.2 43.5 265.7 43.2 267.3 43.2 C 269.3 43.2 270.90000000000003 43.7 271.90000000000003 44.7 C 273.00000000000006 45.7 273.50000000000006 47 273.50000000000006 48.5 C 273.50000000000006 49.9 273.1000000000001 52.1 272.20000000000005 55.2 L 265.5 80.1 z M 255.3 78.6 L 264.3 78.6 L 270.7 54.699999999999996 C 271.5 51.699999999999996 271.9 49.599999999999994 271.9 48.4 C 271.9 47.3 271.59999999999997 46.4 270.79999999999995 45.699999999999996 C 269.99999999999994 44.99999999999999 268.79999999999995 44.599999999999994 267.19999999999993 44.599999999999994 C 265.8999999999999 44.599999999999994 264.5999999999999 44.89999999999999 263.3999999999999 45.49999999999999 C 262.19999999999993 46.099999999999994 261.0999999999999 46.99999999999999 259.99999999999994 48.199999999999996 L 258.69999999999993 47.49999999999999 L 259.3999999999999 45.29999999999999 L 250.19999999999993 45.29999999999999 L 241.29999999999993 78.69999999999999 L 250.29999999999993 78.69999999999999 L 256.49999999999994 55.69999999999999 C 257.49999999999994 52.09999999999999 257.8999999999999 51.09999999999999 258.19999999999993 50.69999999999999 C 258.69999999999993 49.89999999999999 259.49999999999994 49.39999999999999 260.49999999999994 49.39999999999999 C 262.19999999999993 49.39999999999999 262.3999999999999 50.599999999999994 262.3999999999999 50.89999999999999 C 262.3999999999999 51.29999999999999 262.2999999999999 52.19999999999999 261.3999999999999 55.49999999999999 L 255.3 78.6 z" strokeLinecap="round" />
</g>
		<g transform="matrix(1 0 0 1 100.3 -21.3)" id="TeRwBEreXK3q-ItWgm9ws"  >
<path style="stroke: none; strokeWidth: 1; stroke-dasharray: none; strokeLinecap: butt; stroke-dashoffset: 0; strokeLinejoin: miter; strokeMiterlimit: 4; fill: rgb(194,55,57); fillRule: nonzero; opacity: 1;"  transform=" translate(-280.15, -47.3)" d="M 280 43.2 C 281.2 43.2 282.3 43.6 283.1 44.400000000000006 C 283.90000000000003 45.2 284.3 46.2 284.3 47.300000000000004 C 284.3 48.400000000000006 283.90000000000003 49.400000000000006 283.1 50.2 C 282.3 51 281.3 51.400000000000006 280.20000000000005 51.400000000000006 C 279.00000000000006 51.400000000000006 278.1 51.00000000000001 277.20000000000005 50.2 C 276.40000000000003 49.400000000000006 276.00000000000006 48.400000000000006 276.00000000000006 47.300000000000004 C 276.00000000000006 46.50000000000001 276.20000000000005 45.7 276.6000000000001 45.1 C 277.00000000000006 44.4 277.6000000000001 43.9 278.2000000000001 43.6 C 278.8 43.3 279.4 43.2 280 43.2 M 280.2 44 C 279.2 44 278.3 44.3 277.7 45 C 277.09999999999997 45.7 276.7 46.5 276.7 47.3 C 276.7 48.199999999999996 277 49 277.7 49.699999999999996 C 278.4 50.4 279.09999999999997 50.699999999999996 280.09999999999997 50.699999999999996 C 280.99999999999994 50.699999999999996 281.79999999999995 50.4 282.49999999999994 49.699999999999996 C 283.19999999999993 48.99999999999999 283.49999999999994 48.3 283.49999999999994 47.3 C 283.49999999999994 46.699999999999996 283.29999999999995 46.099999999999994 282.99999999999994 45.5 C 282.69999999999993 45 282.19999999999993 44.6 281.69999999999993 44.3 C 281.1 44.1 280.6 44 280.2 44 M 278.2 49.6 L 278.2 45.2 L 280.3 45.2 C 280.8 45.2 281.2 45.300000000000004 281.40000000000003 45.6 C 281.6 45.800000000000004 281.8 46.1 281.8 46.5 C 281.8 46.8 281.7 47.1 281.5 47.3 C 281.3 47.5 281 47.599999999999994 280.6 47.699999999999996 C 280.8 47.8 280.90000000000003 47.9 281 47.99999999999999 C 281.1 48.099999999999994 281.3 48.39999999999999 281.5 48.79999999999999 L 282 49.69999999999999 L 281 49.69999999999999 L 280.6 48.999999999999986 C 280.40000000000003 48.59999999999999 280.20000000000005 48.29999999999998 280 48.09999999999999 C 279.8 47.899999999999984 279.6 47.899999999999984 279.3 47.899999999999984 L 279.1 47.899999999999984 L 279.1 49.69999999999998 L 278.2 49.69999999999998 z M 279.1 47.1 L 279.8 47.1 C 280.2 47.1 280.40000000000003 47.1 280.6 47 C 280.8 46.9 280.8 46.7 280.8 46.5 C 280.8 46.3 280.7 46.2 280.6 46.1 C 280.40000000000003 46 280.20000000000005 46 279.90000000000003 46 L 279.1 46 L 279.1 47.1 z" strokeLinecap="round" />
</g>
		<g transform="matrix(1 0 0 1 -97.35 26.2)" id="RzBv1YXGBIiAMreiaWyaD"  >
<path style="stroke: none; strokeWidth: 1; stroke-dasharray: none; strokeLinecap: butt; stroke-dashoffset: 0; strokeLinejoin: miter; strokeMiterlimit: 4; fill: rgb(0,2,5); fillRule: nonzero; opacity: 1;"  transform=" translate(-82.5, -94.8)" d="M 78.5 101.1 L 77.1 101.1 L 77.1 88.5 L 78.8 88.5 L 82.7 97.5 L 86.3 88.5 L 87.89999999999999 88.5 L 87.89999999999999 101.1 L 86.39999999999999 101.1 L 86.39999999999999 93.6 L 86.39999999999999 91.39999999999999 L 86.39999999999999 91.39999999999999 L 85.6 93.6 L 83.39999999999999 99.19999999999999 L 81.69999999999999 99.19999999999999 L 79.29999999999998 93.6 L 78.49999999999999 91.5 L 78.49999999999999 91.5 L 78.49999999999999 93.6 z" strokeLinecap="round" />
</g>
		<g transform="matrix(1 0 0 1 -85.45 26.2)" id="M1cbpXCiqoVBz9Ldow4Vu"  >
<path style="stroke: none; strokeWidth: 1; stroke-dasharray: none; strokeLinecap: butt; stroke-dashoffset: 0; strokeLinejoin: miter; strokeMiterlimit: 4; fill: rgb(0,2,5); fillRule: nonzero; opacity: 1;"  transform=" translate(-94.4, -94.8)" d="M 90.6 101.1 L 90.6 88.5 L 97.8 88.5 L 97.8 89.9 L 92.3 89.9 L 92.3 93.9 L 97.1 93.9 L 97.1 95.10000000000001 L 92.3 95.10000000000001 L 92.3 99.7 L 98.2 99.7 L 98.2 101.10000000000001 z" strokeLinecap="round" />
</g>
		<g transform="matrix(1 0 0 1 -74.9 26.2)" id="bVjWlqVMrS4DJg1SJN1KP"  >
<path style="stroke: none; strokeWidth: 1; stroke-dasharray: none; strokeLinecap: butt; stroke-dashoffset: 0; strokeLinejoin: miter; strokeMiterlimit: 4; fill: rgb(0,2,5); fillRule: nonzero; opacity: 1;"  transform=" translate(-104.95, -94.8)" d="M 102.3 101.1 L 100.7 101.1 L 100.7 88.5 L 104.60000000000001 88.5 C 105.60000000000001 88.5 106.30000000000001 88.6 106.80000000000001 88.9 C 107.30000000000001 89.2 107.70000000000002 89.60000000000001 107.9 90.10000000000001 C 108.2 90.60000000000001 108.30000000000001 91.2 108.30000000000001 91.80000000000001 C 108.30000000000001 92.30000000000001 108.20000000000002 92.80000000000001 108.00000000000001 93.20000000000002 C 107.80000000000001 93.70000000000002 107.50000000000001 94.10000000000002 107.20000000000002 94.40000000000002 C 106.90000000000002 94.80000000000003 106.30000000000001 95.10000000000002 105.60000000000002 95.40000000000002 C 105.90000000000002 95.60000000000002 106.10000000000002 95.70000000000002 106.20000000000002 95.80000000000003 C 106.30000000000001 95.90000000000002 106.50000000000001 96.20000000000003 106.70000000000002 96.50000000000003 C 106.90000000000002 96.80000000000003 107.10000000000002 97.10000000000002 107.20000000000002 97.40000000000003 L 109.20000000000002 101.10000000000004 L 107.30000000000001 101.10000000000004 L 105.60000000000001 97.80000000000004 C 105.2 97.00000000000004 104.60000000000001 96.30000000000004 103.9 95.70000000000005 L 102.2 95.70000000000005 L 102.2 101.1 z M 102.3 94.4 L 103.89999999999999 94.4 C 104.6 94.4 105.1 94.30000000000001 105.39999999999999 94.10000000000001 C 105.69999999999999 93.9 105.99999999999999 93.60000000000001 106.19999999999999 93.2 C 106.39999999999999 92.8 106.49999999999999 92.4 106.49999999999999 91.9 C 106.49999999999999 91.5 106.39999999999999 91.10000000000001 106.29999999999998 90.80000000000001 C 106.09999999999998 90.50000000000001 105.89999999999998 90.20000000000002 105.59999999999998 90.00000000000001 C 105.29999999999998 89.80000000000001 104.79999999999998 89.70000000000002 103.99999999999999 89.70000000000002 L 102.29999999999998 89.70000000000002 L 102.29999999999998 94.4 z" strokeLinecap="round" />
</g>
		<g transform="matrix(1 0 0 1 -64.95 26.2)" id="7yjvkTSQOz2MyrDZSc7yk"  >
<path style="stroke: none; strokeWidth: 1; stroke-dasharray: none; strokeLinecap: butt; stroke-dashoffset: 0; strokeLinejoin: miter; strokeMiterlimit: 4; fill: rgb(0,2,5); fillRule: nonzero; opacity: 1;"  transform=" translate(-114.9, -94.8)" d="M 111.1 101.1 L 111.1 88.5 L 118.19999999999999 88.5 L 118.19999999999999 89.9 L 112.79999999999998 89.9 L 112.79999999999998 93.9 L 117.59999999999998 93.9 L 117.59999999999998 95.10000000000001 L 112.79999999999998 95.10000000000001 L 112.79999999999998 99.7 L 118.69999999999999 99.7 L 118.69999999999999 101.10000000000001 z" strokeLinecap="round" />
</g>
		<g transform="matrix(1 0 0 1 -54.45 26.2)" id="E-OEiYGtZUjWC_AOe-jT_"  >
<path style="stroke: none; strokeWidth: 1; stroke-dasharray: none; strokeLinecap: butt; stroke-dashoffset: 0; strokeLinejoin: miter; strokeMiterlimit: 4; fill: rgb(0,2,5); fillRule: nonzero; opacity: 1;"  transform=" translate(-125.4, -94.8)" d="M 128.6 98.4 L 130.1 98.4 L 130.1 98.5 C 130.1 99 129.9 99.5 129.6 100 C 129.29999999999998 100.5 128.79999999999998 100.9 128.2 101.1 C 127.6 101.3 126.89999999999999 101.5 126.1 101.5 C 124.5 101.5 123.19999999999999 100.9 122.19999999999999 99.8 C 121.19999999999999 98.7 120.69999999999999 97 120.69999999999999 94.8 C 120.69999999999999 92.6 121.19999999999999 90.89999999999999 122.19999999999999 89.8 C 123.19999999999999 88.7 124.49999999999999 88.1 126.1 88.1 C 126.89999999999999 88.1 127.6 88.19999999999999 128.2 88.5 C 128.79999999999998 88.7 129.29999999999998 89.1 129.6 89.6 C 129.9 90.1 130.1 90.6 130.1 91.1 L 130.1 91.19999999999999 L 128.6 91.19999999999999 L 128.6 91.1 C 128.6 90.8 128.5 90.5 128.29999999999998 90.19999999999999 C 128.1 89.89999999999999 127.79999999999998 89.69999999999999 127.49999999999999 89.6 C 127.09999999999998 89.5 126.69999999999999 89.39999999999999 126.19999999999999 89.39999999999999 C 124.89999999999999 89.39999999999999 123.99999999999999 89.89999999999999 123.29999999999998 90.89999999999999 C 122.69999999999999 91.89999999999999 122.39999999999998 93.19999999999999 122.39999999999998 94.8 C 122.39999999999998 96.39999999999999 122.69999999999997 97.7 123.29999999999998 98.7 C 123.89999999999998 99.7 124.89999999999998 100.2 126.19999999999999 100.2 C 127.1 100.2 127.69999999999999 100 128.1 99.7 C 128.4 99.3 128.6 98.9 128.6 98.4 L 128.6 98.4 z" strokeLinecap="round" />
</g>
		<g transform="matrix(1 0 0 1 -43.75 26.2)" id="2kjrt1H2Oq0jtLlqJ3MXg"  >
<path style="stroke: none; strokeWidth: 1; stroke-dasharray: none; strokeLinecap: butt; stroke-dashoffset: 0; strokeLinejoin: miter; strokeMiterlimit: 4; fill: rgb(0,2,5); fillRule: nonzero; opacity: 1;"  transform=" translate(-136.1, -94.8)" d="M 132.3 101.1 L 132.3 88.5 L 139.5 88.5 L 139.5 89.9 L 134 89.9 L 134 93.9 L 138.8 93.9 L 138.8 95.10000000000001 L 134 95.10000000000001 L 134 99.7 L 139.9 99.7 L 139.9 101.10000000000001 z" strokeLinecap="round" />
</g>
		<g transform="matrix(1 0 0 1 -33.5 26.3)" id="aeuVwRwU0sEV30ZrUPmPX"  >
<path style="stroke: none; strokeWidth: 1; stroke-dasharray: none; strokeLinecap: butt; stroke-dashoffset: 0; strokeLinejoin: miter; strokeMiterlimit: 4; fill: rgb(0,2,5); fillRule: nonzero; opacity: 1;"  transform=" translate(-146.35, -94.9)" d="M 142 98.3 L 143.6 98.3 L 143.6 98.39999999999999 C 143.6 99.1 143.79999999999998 99.6 144.29999999999998 99.89999999999999 C 144.79999999999998 100.19999999999999 145.39999999999998 100.3 146.29999999999998 100.3 C 146.99999999999997 100.3 147.6 100.1 148.1 99.7 C 148.6 99.3 148.79999999999998 98.7 148.79999999999998 98.10000000000001 C 148.79999999999998 97.50000000000001 148.6 97.10000000000001 148.2 96.7 C 147.79999999999998 96.4 147.2 96 146.29999999999998 95.7 L 145.6 95.4 C 144.7 95 144 94.7 143.6 94.30000000000001 C 143.2 93.9 142.79999999999998 93.50000000000001 142.6 93.10000000000001 C 142.4 92.7 142.29999999999998 92.2 142.29999999999998 91.60000000000001 C 142.29999999999998 90.60000000000001 142.6 89.80000000000001 143.29999999999998 89.2 C 143.99999999999997 88.5 144.99999999999997 88.2 146.49999999999997 88.2 C 147.79999999999998 88.2 148.69999999999996 88.4 149.29999999999998 88.9 C 149.79999999999998 89.4 150.1 90 150.1 90.60000000000001 L 150.1 90.7 L 148.5 90.7 L 148.5 90.60000000000001 C 148.5 90.4 148.4 90.2 148.3 90.00000000000001 C 148.10000000000002 89.80000000000001 147.9 89.70000000000002 147.60000000000002 89.60000000000001 C 147.3 89.50000000000001 146.90000000000003 89.50000000000001 146.50000000000003 89.50000000000001 C 145.70000000000002 89.50000000000001 145.10000000000002 89.70000000000002 144.70000000000002 90.10000000000001 C 144.3 90.50000000000001 144.10000000000002 91.00000000000001 144.10000000000002 91.50000000000001 C 144.10000000000002 91.90000000000002 144.20000000000002 92.20000000000002 144.40000000000003 92.50000000000001 C 144.60000000000002 92.80000000000001 144.80000000000004 93.10000000000001 145.20000000000005 93.30000000000001 C 145.50000000000006 93.50000000000001 146.10000000000005 93.80000000000001 146.80000000000004 94.10000000000001 L 147.60000000000005 94.4 C 148.80000000000004 94.9 149.70000000000005 95.5 150.10000000000005 96.10000000000001 C 150.50000000000006 96.7 150.70000000000005 97.30000000000001 150.70000000000005 98.00000000000001 C 150.70000000000005 98.60000000000001 150.50000000000006 99.20000000000002 150.20000000000005 99.80000000000001 C 149.90000000000003 100.4 149.40000000000003 100.80000000000001 148.80000000000004 101.10000000000001 C 148.20000000000005 101.4 147.40000000000003 101.60000000000001 146.40000000000003 101.60000000000001 C 145.50000000000003 101.60000000000001 144.70000000000005 101.50000000000001 144.00000000000003 101.30000000000001 C 143.40000000000003 101.10000000000001 142.90000000000003 100.70000000000002 142.60000000000002 100.20000000000002 C 142.2 99.5 142 99 142 98.3 L 142 98.3 z" strokeLinecap="round" />
</g>
		<g transform="matrix(1 0 0 1 -19.6 26.1)" id="oUmPgNDPa0Jv8vP-5IjKA"  >
<path style="stroke: none; strokeWidth: 1; stroke-dasharray: none; strokeLinecap: butt; stroke-dashoffset: 0; strokeLinejoin: miter; strokeMiterlimit: 4; fill: rgb(0,2,5); fillRule: nonzero; opacity: 1;"  transform=" translate(-160.25, -94.7)" d="M 162.7 88.6 C 162.1 88.3 161.2 88.19999999999999 159.79999999999998 88.19999999999999 L 155.99999999999997 88.19999999999999 L 155.99999999999997 101.19999999999999 L 158.29999999999998 101.19999999999999 L 158.29999999999998 96.39999999999999 L 159.49999999999997 96.39999999999999 C 161.09999999999997 96.39999999999999 162.39999999999998 95.99999999999999 163.19999999999996 95.1 C 163.99999999999997 94.3 164.49999999999997 93.19999999999999 164.49999999999997 92 C 164.49999999999997 91.3 164.39999999999998 90.6 164.09999999999997 90 C 163.8 89.3 163.3 88.9 162.7 88.6 M 162.2 91.9 C 162.2 92.60000000000001 162 93.10000000000001 161.6 93.60000000000001 C 161.2 94.00000000000001 160.4 94.30000000000001 159.1 94.30000000000001 L 158.4 94.30000000000001 L 158.4 90.00000000000001 L 159.9 90.00000000000001 C 160.8 90.00000000000001 161.5 90.20000000000002 161.8 90.50000000000001 C 162 90.9 162.2 91.3 162.2 91.9" strokeLinecap="round" />
</g>
		<g transform="matrix(1 0 0 1 -8.9 26)" id="rXZZd9KlJ6Lr4BSBFrW6o"  >
<path style="stroke: none; strokeWidth: 1; stroke-dasharray: none; strokeLinecap: butt; stroke-dashoffset: 0; strokeLinejoin: miter; strokeMiterlimit: 4; fill: rgb(0,2,5); fillRule: nonzero; opacity: 1;"  transform=" translate(-170.95, -94.6)" d="M 170.1 88.1 L 164.79999999999998 101.1 L 166.99999999999997 101.1 L 168.39999999999998 97.69999999999999 L 173.29999999999998 97.69999999999999 L 174.6 101.1 L 177.1 101.1 L 172.2 88.1 L 170.1 88.1 z M 172.6 95.8 L 169.2 95.8 L 171 91.39999999999999 L 172.6 95.8 z" strokeLinecap="round" />
</g>
		<g transform="matrix(1 0 0 1 2.7 25.9)" id="3vwjQu8FvQwfnzBjSwnCu"  >
<path style="stroke: none; strokeWidth: 1; stroke-dasharray: none; strokeLinecap: butt; stroke-dashoffset: 0; strokeLinejoin: miter; strokeMiterlimit: 4; fill: rgb(0,2,5); fillRule: nonzero; opacity: 1;"  transform=" translate(-182.55, -94.5)" d="M 185.3 88.1 C 184.70000000000002 87.89999999999999 183.9 87.69999999999999 183.20000000000002 87.69999999999999 C 182.10000000000002 87.69999999999999 181.10000000000002 87.99999999999999 180.20000000000002 88.49999999999999 C 179.4 88.99999999999999 178.70000000000002 89.79999999999998 178.3 90.69999999999999 C 177.9 91.6 177.60000000000002 92.99999999999999 177.60000000000002 94.6 C 177.60000000000002 96.1 177.8 97.3 178.3 98.3 C 178.8 99.3 179.4 100 180.20000000000002 100.5 C 181.00000000000003 101 182.10000000000002 101.3 183.4 101.3 C 184.6 101.3 185.9 101 187.3 100.3 L 187.5 100.2 L 187.5 94.10000000000001 L 182.5 94.10000000000001 L 182.5 96.00000000000001 L 185.3 96.00000000000001 L 185.3 98.90000000000002 C 183.10000000000002 99.60000000000002 181.70000000000002 99.30000000000003 180.8 98.00000000000001 C 180.20000000000002 97.10000000000001 179.9 95.90000000000002 179.9 94.30000000000001 C 179.9 92.70000000000002 180.20000000000002 91.50000000000001 180.8 90.60000000000001 C 181.4 89.80000000000001 182.20000000000002 89.4 183.20000000000002 89.4 C 183.60000000000002 89.4 184.00000000000003 89.5 184.3 89.60000000000001 C 184.60000000000002 89.7 184.8 89.9 185 90.10000000000001 C 185.2 90.30000000000001 185.2 90.50000000000001 185.2 90.7 L 185.2 91.10000000000001 L 187.39999999999998 91.10000000000001 L 187.39999999999998 90.7 C 187.39999999999998 90.2 187.2 89.60000000000001 186.79999999999998 89.10000000000001 C 186.5 88.8 186 88.4 185.3 88.1" strokeLinecap="round" />
</g>
		<g transform="matrix(1 0 0 1 14.65 26)" id="QEFtjleJE73TmsOSy3j6W"  >
<path style="stroke: none; strokeWidth: 1; stroke-dasharray: none; strokeLinecap: butt; stroke-dashoffset: 0; strokeLinejoin: miter; strokeMiterlimit: 4; fill: rgb(0,2,5); fillRule: nonzero; opacity: 1;"  transform=" translate(-194.5, -94.6)" d="M 193.6 88.1 L 188.29999999999998 101.1 L 190.6 101.1 L 192 97.69999999999999 L 196.9 97.69999999999999 L 198.20000000000002 101.1 L 200.70000000000002 101.1 L 195.8 88.1 L 193.6 88.1 z M 196.1 95.8 L 192.7 95.8 L 194.5 91.39999999999999 L 196.1 95.8 z" strokeLinecap="round" />
</g>
		<g transform="matrix(1 0 0 1 26.25 26)" id="_3iKi_JIUCzBbDIs7R_ob"  >
<path style="stroke: none; strokeWidth: 1; stroke-dasharray: none; strokeLinecap: butt; stroke-dashoffset: 0; strokeLinejoin: miter; strokeMiterlimit: 4; fill: rgb(0,2,5); fillRule: nonzero; opacity: 1;"  transform=" translate(-206.1, -94.6)" d="M 208.6 96.9 C 208.5 96.60000000000001 208.29999999999998 96.4 208.1 96.10000000000001 C 207.9 95.80000000000001 207.7 95.60000000000001 207.6 95.4 C 207.6 95.4 207.5 95.30000000000001 207.5 95.30000000000001 C 208 95.10000000000001 208.3 94.80000000000001 208.6 94.50000000000001 C 209 94.10000000000001 209.2 93.70000000000002 209.4 93.20000000000002 C 209.6 92.70000000000002 209.70000000000002 92.20000000000002 209.70000000000002 91.70000000000002 C 209.70000000000002 91.10000000000002 209.50000000000003 90.40000000000002 209.20000000000002 89.90000000000002 C 208.9 89.30000000000003 208.50000000000003 88.90000000000002 207.9 88.60000000000002 C 207.4 88.30000000000003 206.6 88.10000000000002 205.6 88.10000000000002 L 201.5 88.10000000000002 L 201.5 101.10000000000002 L 203.8 101.10000000000002 L 203.8 95.80000000000003 L 204.9 95.80000000000003 C 205.5 96.30000000000003 206 97.00000000000003 206.3 97.70000000000003 L 208.10000000000002 101.10000000000004 L 210.70000000000002 101.10000000000004 L 208.6 96.9 z M 207.3 91.8 C 207.3 92.2 207.20000000000002 92.5 207 92.89999999999999 C 206.8 93.19999999999999 206.6 93.49999999999999 206.3 93.6 C 206 93.8 205.60000000000002 93.89999999999999 205 93.89999999999999 L 203.8 93.89999999999999 L 203.8 90.1 L 205.10000000000002 90.1 C 205.90000000000003 90.1 206.3 90.19999999999999 206.50000000000003 90.3 C 206.80000000000004 90.5 206.90000000000003 90.7 207.10000000000002 90.89999999999999 C 207.2 91.2 207.3 91.5 207.3 91.8" strokeLinecap="round" />
</g>
		<g transform="matrix(1 0 0 1 40.5 25.8)" id="QiyxlMFatg2nHISqJzSOj"  >
<path style="stroke: none; strokeWidth: 1; stroke-dasharray: none; strokeLinecap: butt; stroke-dashoffset: 0; strokeLinejoin: miter; strokeMiterlimit: 4; fill: rgb(0,2,5); fillRule: nonzero; opacity: 1;"  transform=" translate(-220.35, -94.4)" d="M 220.5 95.1 L 217.3 87.69999999999999 L 214.60000000000002 87.69999999999999 L 214.60000000000002 101.1 L 217.3 101.1 L 217.3 95.1 L 219.10000000000002 99.3 L 221.60000000000002 99.3 L 223.3 95.1 L 223.3 101.1 L 226.10000000000002 101.1 L 226.10000000000002 87.69999999999999 L 223.40000000000003 87.69999999999999 z" strokeLinecap="round" />
</g>
		<g transform="matrix(1 0 0 1 51.75 25.8)" id="1pss5oEDzH0iMI75zYbpf"  >
<path style="stroke: none; strokeWidth: 1; stroke-dasharray: none; strokeLinecap: butt; stroke-dashoffset: 0; strokeLinejoin: miter; strokeMiterlimit: 4; fill: rgb(0,2,5); fillRule: nonzero; opacity: 1;"  transform=" translate(-231.6, -94.4)" d="M 230.3 95.4 L 234.9 95.4 L 234.9 92.80000000000001 L 230.3 92.80000000000001 L 230.3 90.50000000000001 L 235.5 90.50000000000001 L 235.5 87.70000000000002 L 227.3 87.70000000000002 L 227.3 101.10000000000002 L 235.9 101.10000000000002 L 235.9 98.30000000000003 L 230.3 98.30000000000003 z" strokeLinecap="round" />
</g>
		<g transform="matrix(1 0 0 1 62.1 25.8)" id="-ga-0FWKhDfKFpLOlmVAP"  >
<path style="stroke: none; strokeWidth: 1; stroke-dasharray: none; strokeLinecap: butt; stroke-dashoffset: 0; strokeLinejoin: miter; strokeMiterlimit: 4; fill: rgb(0,2,5); fillRule: nonzero; opacity: 1;"  transform=" translate(-241.95, -94.4)" d="M 244.2 95.2 L 239.39999999999998 87.7 L 238.09999999999997 87.7 L 238.09999999999997 87.7 L 238.09999999999997 87.7 L 236.79999999999995 87.7 L 236.79999999999995 101.10000000000001 L 239.69999999999996 101.10000000000001 L 239.69999999999996 93.60000000000001 L 244.49999999999997 101.10000000000001 L 247.09999999999997 101.10000000000001 L 247.09999999999997 87.7 L 244.19999999999996 87.7 z" strokeLinecap="round" />
</g>
		<g transform="matrix(1 0 0 1 73.85 25.8)" id="tC5kNqqEk1A9L2nwVV9q3"  >
<path style="stroke: none; strokeWidth: 1; stroke-dasharray: none; strokeLinecap: butt; stroke-dashoffset: 0; strokeLinejoin: miter; strokeMiterlimit: 4; fill: rgb(0,2,5); fillRule: nonzero; opacity: 1;"  transform=" translate(-253.7, -94.4)" d="M 253.7 87.4 C 252 87.4 250.6 88 249.5 89.30000000000001 C 248.4 90.50000000000001 247.9 92.30000000000001 247.9 94.4 C 247.9 96.60000000000001 248.4 98.30000000000001 249.5 99.5 C 250.6 100.8 252 101.4 253.7 101.4 C 255.39999999999998 101.4 256.8 100.80000000000001 257.9 99.5 C 259 98.3 259.5 96.5 259.5 94.4 C 259.5 92.2 259 90.5 257.9 89.30000000000001 C 256.8 88 255.4 87.4 253.7 87.4 M 250.9 94.4 C 250.9 93 251.20000000000002 91.9 251.70000000000002 91.10000000000001 C 252.20000000000002 90.4 252.8 90.00000000000001 253.60000000000002 90.00000000000001 C 254.40000000000003 90.00000000000001 255.10000000000002 90.30000000000001 255.50000000000003 91.10000000000001 C 256 91.9 256.3 93.00000000000001 256.3 94.4 C 256.3 95.80000000000001 256 96.9 255.5 97.7 C 255 98.4 254.4 98.8 253.6 98.8 C 252.79999999999998 98.8 252.1 98.5 251.7 97.7 C 251.2 96.9 250.9 95.8 250.9 94.4" strokeLinecap="round" />
</g>
		<g transform="matrix(1 0 0 1 84.95 25.85)" id="_CcJLHfH1yxuYnVzxCme7"  >
<path style="stroke: none; strokeWidth: 1; stroke-dasharray: none; strokeLinecap: butt; stroke-dashoffset: 0; strokeLinejoin: miter; strokeMiterlimit: 4; fill: rgb(0,2,5); fillRule: nonzero; opacity: 1;"  transform=" translate(-264.8, -94.45)" d="M 268.8 95.1 C 268.3 94.39999999999999 267.5 93.8 266.2 93.3 L 265.5 93 C 264.8 92.7 264.3 92.5 264.1 92.3 C 263.90000000000003 92.2 263.70000000000005 92 263.6 91.8 C 263.5 91.6 263.40000000000003 91.39999999999999 263.40000000000003 91.2 C 263.40000000000003 90.9 263.50000000000006 90.60000000000001 263.70000000000005 90.4 C 263.90000000000003 90.2 264.30000000000007 90 264.90000000000003 90 C 265.20000000000005 90 265.50000000000006 90 265.70000000000005 90.1 C 265.90000000000003 90.1 266.00000000000006 90.19999999999999 266.00000000000006 90.3 C 266.1000000000001 90.39999999999999 266.1000000000001 90.39999999999999 266.1000000000001 90.39999999999999 L 266.1000000000001 91.19999999999999 L 269.1000000000001 91.19999999999999 L 269.1000000000001 90.39999999999999 C 269.1000000000001 89.6 268.80000000000007 88.89999999999999 268.1000000000001 88.3 C 267.4000000000001 87.7 266.4000000000001 87.39999999999999 265.00000000000006 87.39999999999999 C 263.50000000000006 87.39999999999999 262.30000000000007 87.8 261.50000000000006 88.49999999999999 C 260.70000000000005 89.29999999999998 260.30000000000007 90.19999999999999 260.30000000000007 91.29999999999998 C 260.30000000000007 91.89999999999998 260.4000000000001 92.49999999999999 260.70000000000005 92.99999999999999 C 260.90000000000003 93.49999999999999 261.30000000000007 93.99999999999999 261.80000000000007 94.39999999999999 C 262.30000000000007 94.8 263.00000000000006 95.19999999999999 263.9000000000001 95.49999999999999 L 264.5000000000001 95.79999999999998 C 265.2000000000001 96.09999999999998 265.8000000000001 96.39999999999998 266.10000000000014 96.69999999999999 C 266.3000000000001 96.89999999999999 266.40000000000015 97.1 266.40000000000015 97.39999999999999 C 266.40000000000015 97.8 266.3000000000001 98.19999999999999 266.00000000000017 98.39999999999999 C 265.70000000000016 98.69999999999999 265.3000000000002 98.8 264.8000000000002 98.8 C 264.20000000000016 98.8 263.70000000000016 98.7 263.3000000000002 98.5 C 263.20000000000016 98.4 263.00000000000017 98.3 263.00000000000017 97.8 L 263.00000000000017 97 L 260.00000000000017 97 L 260.00000000000017 97.8 C 260.00000000000017 98.5 260.20000000000016 99.2 260.6000000000002 99.8 C 261.00000000000017 100.39999999999999 261.6000000000002 100.89999999999999 262.3000000000002 101.1 C 263.00000000000017 101.3 263.8000000000002 101.5 264.8000000000002 101.5 C 265.9000000000002 101.5 266.70000000000016 101.3 267.4000000000002 101 C 268.1000000000002 100.6 268.6000000000002 100.1 269.0000000000002 99.4 C 269.4000000000002 98.7 269.60000000000025 98 269.60000000000025 97.30000000000001 C 269.5 96.5 269.3 95.7 268.8 95.1" strokeLinecap="round" />
</g>
</g>
</g>
</svg>