<svg width="209" height="49" viewBox="0 0 209 49" fill="none" xmlns="http://www.w3.org/2000/svg">
<g clip-path="url(#clip0_3693_3356)">
<path d="M28.3933 7.92383L13.9756 43.9454H0L4.03755 7.92383H13.5841L9.72056 34.2227C10.4599 32.29 12.0981 27.5773 14.6207 20.0846C16.0197 15.9071 17.4187 11.8486 18.8395 7.92383H28.3933Z" fill="#C43639"/>
<path d="M49.2981 26.5741H35.453L33.4161 34.3641C32.9884 35.992 32.829 37.0401 32.9377 37.5084C33.0464 37.9767 33.4234 38.2145 34.0758 38.2145C34.8876 38.2145 35.511 37.9023 35.9459 37.278C36.3809 36.6536 36.8375 35.4419 37.3014 33.6505L38.541 28.9007H48.682L47.9861 31.5618C47.4062 33.7918 46.819 35.494 46.2391 36.6907C45.652 37.8875 44.6734 39.1586 43.3179 40.5188C41.9551 41.8717 40.4184 42.8975 38.6932 43.5739C36.968 44.2503 34.9456 44.5923 32.6188 44.5923C30.2919 44.5923 28.458 44.2578 26.8995 43.5888C25.3483 42.9198 24.2392 41.9981 23.5868 40.831C22.9272 39.664 22.601 38.3781 22.5938 36.9806C22.5938 35.5757 22.9417 33.5316 23.6376 30.8556L26.3848 20.3524C27.2112 17.2082 28.2768 14.718 29.5743 12.9043C30.8791 11.0832 32.6043 9.69315 34.7426 8.72683C36.881 7.76051 39.1789 7.27734 41.6362 7.27734C44.6372 7.27734 46.9568 7.85714 48.6022 9.02416C50.2477 10.1912 51.2118 11.7373 51.4945 13.6625C51.7699 15.5877 51.4655 18.3009 50.5449 21.7945L49.2981 26.5741ZM40.1067 20.7092L40.7953 18.0779C41.2882 16.2121 41.4985 15.0079 41.4477 14.4727C41.397 13.9301 41.0708 13.6551 40.4691 13.6551C39.7298 13.6551 39.2079 13.8855 38.9107 14.3464C38.6135 14.8072 38.2003 16.0486 37.6711 18.0779L36.9825 20.7092H40.1067Z" fill="#C43639"/>
<path d="M68.5437 7.92404L67.4854 11.2467C68.6089 9.92358 69.8195 8.92753 71.1097 8.26597C72.4 7.60441 73.7773 7.27734 75.2488 7.27734C77.0827 7.27734 78.4672 7.72334 79.3951 8.6079C80.3229 9.49245 80.7868 10.6149 80.7723 11.9603C80.7578 13.3057 80.3374 15.558 79.511 18.7023L72.9147 43.9456H62.2228L68.7394 18.9996C69.3845 16.5243 69.7035 15.0154 69.689 14.4653C69.6745 13.9301 69.3048 13.6551 68.5799 13.6551C67.8551 13.6551 67.2607 13.9673 66.9055 14.5917C66.5503 15.2235 66.0139 16.8885 65.3108 19.6017L58.9536 43.953H48.2617L57.6778 7.93147H68.5582L68.5437 7.92404Z" fill="#C43639"/>
<path d="M98.5479 3.12207L97.0692 8.79364H99.9542L98.4682 14.4949H95.5832L90.5526 33.7694C89.9292 36.1406 89.7045 37.4637 89.8712 37.7313C90.0379 37.9989 90.9948 38.1401 92.749 38.1401L91.234 43.9455H86.9137C84.4854 43.9455 82.7674 43.8414 81.7816 43.6333C80.7958 43.4252 79.9984 42.9494 79.404 42.1987C78.8024 41.4479 78.5342 40.5857 78.5994 39.6193C78.6574 38.653 79.1503 36.3784 80.0854 32.7882L84.8623 14.4949H82.5572L84.0432 8.79364H86.3483L87.8343 3.12207H98.5552H98.5479Z" fill="#C43639"/>
<path d="M108.442 21.8763H98.4099L99.0405 19.4604C99.7727 16.673 100.642 14.5248 101.665 13.0158C102.687 11.5069 104.289 10.1689 106.485 9.01673C108.674 7.85714 111.284 7.27734 114.292 7.27734C117.909 7.27734 120.468 7.9389 121.961 9.24716C123.454 10.5554 124.136 12.1684 124.005 14.0788C123.875 15.9891 123.034 19.9213 121.475 25.8753L116.756 43.953H106.355L107.195 40.7419C106.202 42.0352 105.108 42.9941 103.912 43.6408C102.708 44.2801 101.396 44.5997 99.9684 44.5997C98.0982 44.5997 96.518 44.0645 95.2422 42.9867C93.9592 41.9089 93.7997 39.5525 94.7493 35.9177L95.5176 32.9592C96.228 30.261 97.1196 28.4249 98.1997 27.4438C99.287 26.47 101.643 25.3327 105.26 24.0319C109.145 22.6121 111.269 21.6681 111.646 21.1775C112.023 20.6869 112.407 19.6983 112.799 18.1894C113.292 16.3087 113.473 15.0823 113.35 14.5099C113.226 13.9375 112.849 13.6551 112.211 13.6551C111.487 13.6551 110.972 13.8929 110.675 14.3687C110.37 14.8518 109.957 16.0932 109.435 18.1002L108.449 21.8763H108.442ZM110.537 26.8194C108.493 28.1053 107.217 29.1831 106.717 30.0528C106.217 30.9151 105.753 32.1713 105.325 33.7992C104.84 35.6649 104.644 36.8691 104.745 37.4043C104.84 37.9469 105.238 38.222 105.941 38.222C106.644 38.222 107.108 38.0064 107.42 37.5827C107.732 37.159 108.123 36.044 108.594 34.2303L110.53 26.8194H110.537Z" fill="#C43639"/>
<path d="M141.178 7.92385L133.734 36.4229C132.857 39.7753 132.197 42.035 131.755 43.2244C131.313 44.4063 130.632 45.4469 129.725 46.3463C128.812 47.2458 127.732 47.9073 126.478 48.3459C125.224 48.777 123.455 49 121.186 49H117.055L118.555 43.2467C119.831 43.2467 120.578 43.098 120.817 42.8081C121.049 42.5182 121.6 40.7119 122.477 37.3818L130.168 7.93128H141.178V7.92385ZM143.252 0L141.758 5.73104H130.74L132.241 0H143.252Z" fill="#C43639"/>
<path d="M148.868 44.9115C146.425 44.9115 144.395 44.629 142.815 44.0715C141.141 43.4769 139.93 42.5477 139.212 41.3138C138.517 40.1171 138.169 38.6601 138.176 36.9951C138.19 35.3821 138.596 33.0703 139.423 29.9112L141.829 20.6865C142.721 17.2747 143.801 14.5541 145.04 12.614C146.309 10.6219 148.085 9.00889 150.325 7.80471C152.557 6.60795 155.203 6.00586 158.168 6.00586C160.669 6.00586 162.764 6.39982 164.395 7.18031C166.062 7.9831 167.272 9.06093 167.983 10.384C168.664 11.67 169.027 13.0154 169.048 14.3906C169.063 15.7286 168.737 17.6612 168.048 20.3074L165.743 29.1307C164.887 32.4013 164.083 34.8394 163.358 36.393C162.604 37.9837 161.488 39.4927 160.038 40.8678C158.581 42.2504 156.885 43.2836 154.993 43.9377C153.13 44.5844 151.064 44.9115 148.875 44.9115M158.175 7.58914C155.457 7.58914 153.058 8.13177 151.042 9.20959C149.042 10.28 147.454 11.7146 146.338 13.4688C145.185 15.2751 144.178 17.8396 143.33 21.0879L140.923 30.32C140.14 33.3008 139.742 35.5456 139.727 37.0025C139.72 38.3777 139.995 39.5521 140.546 40.4962C141.068 41.403 142.01 42.1017 143.33 42.57C144.743 43.0755 146.606 43.3282 148.875 43.3282C150.897 43.3282 152.789 43.0309 154.493 42.4362C156.182 41.8564 157.69 40.9273 158.987 39.7008C160.292 38.4669 161.292 37.1215 161.959 35.7017C162.648 34.2373 163.416 31.8959 164.242 28.7144L166.54 19.8986C167.185 17.4308 167.504 15.5799 167.49 14.4129C167.475 13.2979 167.178 12.2052 166.613 11.1422C166.069 10.1239 165.098 9.27649 163.728 8.62236C162.314 7.93851 160.437 7.59658 158.161 7.59658M150.419 38.5412C149.426 38.5412 148.745 37.9986 148.607 37.0917C148.542 36.6532 148.549 35.8429 149.179 33.442L153.427 17.1855C154.109 14.5764 154.522 13.8033 154.776 13.4391C155.261 12.7478 155.979 12.391 156.863 12.391C158.364 12.391 158.639 13.4614 158.683 13.7885C158.741 14.2047 158.726 15.0075 158.045 17.6017L153.703 34.215C153.261 35.9024 152.876 36.9505 152.485 37.508C152.014 38.1844 151.303 38.5486 150.412 38.5486M150.151 36.9282C150.151 36.9282 150.231 36.9579 150.412 36.9579C150.905 36.9579 151.1 36.7572 151.224 36.5863C151.376 36.3633 151.709 35.7091 152.202 33.7988L156.544 17.1855C157.175 14.7622 157.168 14.1453 157.146 14.0189C157.11 14.004 157.023 13.9817 156.856 13.9817C156.363 13.9817 156.153 14.1899 156.03 14.3683C155.87 14.5913 155.515 15.3123 154.92 17.6017L150.673 33.8583C150.107 36.0139 150.107 36.6755 150.136 36.8613C150.136 36.9059 150.151 36.9208 150.151 36.9282Z" fill="#C43639"/>
<path d="M189.976 44.2575H177.675L184.46 18.3154C185.308 15.0597 185.388 14.2271 185.381 14.0116C185.337 13.9967 185.229 13.967 185.047 13.967C184.554 13.967 184.257 14.1305 184.04 14.5096C183.822 14.8961 183.38 16.0409 182.525 19.3264L176.008 44.2575H163.707L173.536 6.65266H186.077L185.62 8.10215C186.142 7.70075 186.678 7.35882 187.236 7.07636C188.635 6.36277 190.143 5.99854 191.723 5.99854C193.753 5.99854 195.326 6.51886 196.399 7.53722C197.501 8.57787 198.044 9.90843 198.023 11.4843C198.008 12.9115 197.58 15.1786 196.732 18.4269L189.984 44.2575H189.976ZM179.698 42.6668H188.788L195.232 18.0107C196.036 14.9407 196.45 12.7331 196.464 11.462C196.479 10.3396 196.109 9.4327 195.341 8.70424C194.558 7.96835 193.34 7.58925 191.716 7.58925C190.382 7.58925 189.107 7.89402 187.925 8.49611C186.729 9.11307 185.591 10.0497 184.54 11.2836L183.221 10.518L183.946 8.23594H174.725L165.729 42.6668H174.819L181.032 18.9101C182.01 15.1637 182.46 14.1454 182.713 13.7068C183.213 12.8371 184.018 12.3763 185.055 12.3763C186.758 12.3763 186.925 13.5879 186.939 13.9595C186.954 14.3907 186.852 15.3273 185.968 18.7243L179.712 42.6668H179.698Z" fill="#C43639"/>
<path d="M204.53 6.10997C205.784 6.10997 206.814 6.53367 207.625 7.38849C208.437 8.24332 208.843 9.25424 208.843 10.4064C208.843 11.5585 208.43 12.6066 207.611 13.4466C206.785 14.2866 205.799 14.7102 204.646 14.7102C203.494 14.7102 202.501 14.2866 201.674 13.4466C200.855 12.6066 200.449 11.5883 200.449 10.399C200.449 9.56644 200.667 8.80081 201.094 8.10208C201.529 7.40336 202.073 6.89046 202.718 6.57827C203.363 6.25864 203.972 6.10254 204.53 6.10254M204.74 6.93506C203.711 6.93506 202.878 7.28443 202.24 7.98315C201.595 8.67444 201.283 9.48467 201.283 10.399C201.283 11.3132 201.609 12.1681 202.276 12.8445C202.936 13.5209 203.733 13.8629 204.653 13.8629C205.574 13.8629 206.371 13.5209 207.031 12.8445C207.698 12.1681 208.024 11.3504 208.024 10.399C208.024 9.74483 207.857 9.14274 207.524 8.59268C207.191 8.04262 206.763 7.62636 206.241 7.35133C205.719 7.0763 205.219 6.93506 204.74 6.93506ZM202.798 12.7033V8.13925H204.907C205.429 8.13925 205.813 8.26562 206.045 8.51091C206.284 8.75621 206.4 9.06841 206.4 9.43264C206.4 9.79687 206.306 10.0645 206.103 10.28C205.9 10.4956 205.603 10.6368 205.204 10.7112C205.386 10.7855 205.531 10.8747 205.639 11.0011C205.748 11.12 205.915 11.3801 206.147 11.789L206.669 12.7033H205.56L205.19 11.9674C204.965 11.5288 204.769 11.2315 204.603 11.068C204.436 10.9119 204.211 10.8301 203.936 10.8301H203.704V12.7033H202.805H202.798ZM203.697 10.1091H204.436C204.806 10.1091 205.067 10.057 205.219 9.9604C205.371 9.86377 205.451 9.70023 205.451 9.47724C205.451 9.27654 205.371 9.12044 205.219 9.02381C205.067 8.92718 204.835 8.87514 204.523 8.87514H203.697V10.1165V10.1091Z" fill="#C43639"/>
</g>
<defs>
<clipPath id="clip0_3693_3356">
<rect width="208.843" height="49" fill="white"/>
</clipPath>
</defs>
</svg>
