<svg width="20" height="21" viewBox="0 0 20 21" fill="none" xmlns="http://www.w3.org/2000/svg">
<g clip-path="url(#clip0_3621_14479)">
<path d="M15.8333 3.52523H14.9167C14.7233 2.58474 14.2115 1.73968 13.4677 1.13249C12.7239 0.525303 11.7935 0.193107 10.8333 0.191895L9.16667 0.191895C8.2065 0.193107 7.2761 0.525303 6.53229 1.13249C5.78848 1.73968 5.27675 2.58474 5.08333 3.52523H4.16667C3.062 3.52655 2.00296 3.96596 1.22185 4.74708C0.440735 5.52819 0.00132321 6.58723 0 7.69189L0 16.0252C0.00132321 17.1299 0.440735 18.1889 1.22185 18.97C2.00296 19.7512 3.062 20.1906 4.16667 20.1919H15.8333C16.938 20.1906 17.997 19.7512 18.7782 18.97C19.5593 18.1889 19.9987 17.1299 20 16.0252V7.69189C19.9987 6.58723 19.5593 5.52819 18.7782 4.74708C17.997 3.96596 16.938 3.52655 15.8333 3.52523V3.52523ZM9.16667 1.85856H10.8333C11.3486 1.8607 11.8505 2.02196 12.2706 2.3203C12.6906 2.61864 13.0083 3.03947 13.18 3.52523H6.82C6.99174 3.03947 7.30936 2.61864 7.72942 2.3203C8.14948 2.02196 8.65145 1.8607 9.16667 1.85856V1.85856ZM4.16667 5.19189H15.8333C16.4964 5.19189 17.1323 5.45529 17.6011 5.92413C18.0699 6.39297 18.3333 7.02885 18.3333 7.69189V10.1919H1.66667V7.69189C1.66667 7.02885 1.93006 6.39297 2.3989 5.92413C2.86774 5.45529 3.50363 5.19189 4.16667 5.19189V5.19189ZM15.8333 18.5252H4.16667C3.50363 18.5252 2.86774 18.2618 2.3989 17.793C1.93006 17.3242 1.66667 16.6883 1.66667 16.0252V11.8586H9.16667V12.6919C9.16667 12.9129 9.25446 13.1249 9.41074 13.2811C9.56702 13.4374 9.77899 13.5252 10 13.5252C10.221 13.5252 10.433 13.4374 10.5893 13.2811C10.7455 13.1249 10.8333 12.9129 10.8333 12.6919V11.8586H18.3333V16.0252C18.3333 16.6883 18.0699 17.3242 17.6011 17.793C17.1323 18.2618 16.4964 18.5252 15.8333 18.5252Z" fill="#5A5A5A"/>
</g>
<defs>
<clipPath id="clip0_3621_14479">
<rect width="20" height="20" fill="white" transform="translate(0 0.191895)"/>
</clipPath>
</defs>
</svg>
