<svg width="403" height="118" viewBox="0 0 403 118" fill="none" xmlns="http://www.w3.org/2000/svg">
<path d="M0 10.5C0 4.97715 4.47715 0.5 10 0.5H393C398.523 0.5 403 4.97715 403 10.5V107.5C403 113.023 398.523 117.5 393 117.5H10C4.47715 117.5 0 113.023 0 107.5V10.5Z" fill="#CF3339"/>
<path d="M274.829 94.8849C246.73 97.8231 226.114 111.175 219.336 117.5H392.967C398.502 117.518 403 113.036 403 107.5V55.7092C377.119 55.7092 361.098 72.2364 343.228 85.7031C325.358 99.1698 309.953 91.2122 274.829 94.8849Z" fill="#FF7168"/>
</svg>
