<svg width="16" height="21" viewBox="0 0 16 21" fill="none" xmlns="http://www.w3.org/2000/svg">
<path fillRule="evenodd" clipRule="evenodd" d="M5.22215 9.34925C6.0444 9.89865 7.0111 10.1919 8 10.1919C9.32568 10.1906 10.5967 9.66337 11.5341 8.72597C12.4715 7.78858 12.9987 6.51757 13 5.1919C13 4.20299 12.7068 3.23629 12.1574 2.41405C11.6079 1.5918 10.8271 0.950937 9.91342 0.572499C8.99979 0.194061 7.99446 0.0950443 7.02455 0.28797C6.05465 0.480897 5.16373 0.9571 4.46447 1.65636C3.76521 2.35563 3.289 3.24654 3.09608 4.21645C2.90315 5.18635 3.00217 6.19168 3.3806 7.10531C3.75904 8.01895 4.39991 8.79984 5.22215 9.34925ZM6.1481 2.42033C6.69627 2.05406 7.34073 1.85856 8 1.85856C8.88406 1.85856 9.7319 2.20975 10.357 2.83487C10.9821 3.46 11.3333 4.30784 11.3333 5.1919C11.3333 5.85117 11.1378 6.49563 10.7716 7.0438C10.4053 7.59196 9.8847 8.0192 9.27561 8.2715C8.66653 8.52379 7.9963 8.5898 7.3497 8.46118C6.7031 8.33257 6.10915 8.0151 5.64298 7.54892C5.1768 7.08275 4.85934 6.4888 4.73072 5.8422C4.6021 5.1956 4.66811 4.52537 4.9204 3.91629C5.1727 3.3072 5.59994 2.7866 6.1481 2.42033ZM13.8333 20.192H15.5V15.9895C15.4987 14.8943 15.063 13.8444 14.2886 13.07C13.5143 12.2956 12.4643 11.8599 11.3692 11.8586H4.63083C3.53567 11.8599 2.48575 12.2956 1.71135 13.07C0.93696 13.8444 0.501323 14.8943 0.5 15.9895V20.192H2.16667V15.9895C2.16733 15.3361 2.42716 14.7097 2.88914 14.2478C3.35111 13.7858 3.9775 13.5259 4.63083 13.5253H11.3692C12.0225 13.5259 12.6489 13.7858 13.1109 14.2478C13.5728 14.7097 13.8327 15.3361 13.8333 15.9895V20.192Z" fill="#5A5A5A"/>
</svg>
