<svg width="12" height="17" viewBox="0 0 12 17" fill="none" xmlns="http://www.w3.org/2000/svg" class="fill-current text-white">
  <path fill="currentColor" fillRule="evenodd" clipRule="evenodd" d="M3.77772 7.93501C4.43552 8.37454 5.20887 8.60913 6 8.60913C7.06054 8.60807 8.07734 8.18631 8.82726 7.43639C9.57717 6.68647 9.99894 5.66967 10 4.60913C10 3.81801 9.7654 3.04465 9.32588 2.38685C8.88635 1.72906 8.26164 1.21637 7.53073 0.913615C6.79983 0.610864 5.99556 0.531651 5.21964 0.685992C4.44371 0.840332 3.73098 1.2213 3.17157 1.78071C2.61216 2.34012 2.2312 3.05285 2.07686 3.82877C1.92252 4.6047 2.00173 5.40896 2.30448 6.13987C2.60723 6.87077 3.11992 7.49549 3.77772 7.93501ZM4.88886 2.94619C5.21776 2.72643 5.60444 2.60913 6 2.60913C6.53043 2.60913 7.03914 2.81985 7.41421 3.19492C7.78929 3.56999 8 4.0787 8 4.60913C8 5.0047 7.8827 5.39138 7.66294 5.72027C7.44318 6.04917 7.13082 6.30552 6.76537 6.45689C6.39991 6.60827 5.99778 6.64787 5.60982 6.5707C5.22186 6.49353 4.86549 6.30305 4.58579 6.02335C4.30608 5.74364 4.1156 5.38728 4.03843 4.99931C3.96126 4.61135 4.00087 4.20922 4.15224 3.84377C4.30362 3.47831 4.55996 3.16596 4.88886 2.94619ZM10 16.6091H12V13.2758C11.9989 12.3921 11.6474 11.5448 11.0225 10.9199C10.3976 10.2951 9.5504 9.94352 8.66667 9.94246H3.33333C2.4496 9.94352 1.60237 10.2951 0.97748 10.9199C0.352588 11.5448 0.00105857 12.3921 0 13.2758V16.6091H2V13.2758C2 12.9222 2.14048 12.583 2.39052 12.333C2.64057 12.0829 2.97971 11.9425 3.33333 11.9425H8.66667C9.02029 11.9425 9.35943 12.0829 9.60948 12.333C9.85952 12.583 10 12.9222 10 13.2758V16.6091Z"/>
</svg>