<svg width="20" height="25" viewBox="0 0 20 25" fill="none" xmlns="http://www.w3.org/2000/svg">
<path fillRule="evenodd" clipRule="evenodd" d="M6.52769 11.4467C7.5555 12.1334 8.76387 12.5 10 12.5C11.6571 12.4984 13.2459 11.8393 14.4176 10.6676C15.5893 9.49585 16.2483 7.9071 16.25 6.25C16.25 5.01387 15.8834 3.8055 15.1967 2.77769C14.5099 1.74988 13.5338 0.948804 12.3918 0.475756C11.2497 0.00270804 9.99307 -0.121063 8.78069 0.120095C7.56831 0.361253 6.45466 0.956507 5.58059 1.83059C4.70651 2.70466 4.11125 3.81831 3.8701 5.03069C3.62894 6.24307 3.75271 7.49974 4.22576 8.64178C4.6988 9.78381 5.49988 10.7599 6.52769 11.4467ZM7.68513 2.78555C8.37033 2.32771 9.17591 2.08334 10 2.08334C11.1051 2.08334 12.1649 2.52232 12.9463 3.30373C13.7277 4.08513 14.1667 5.14494 14.1667 6.25C14.1667 7.07409 13.9223 7.87968 13.4645 8.56488C13.0066 9.25008 12.3559 9.78414 11.5945 10.0995C10.8332 10.4149 9.99538 10.4974 9.18713 10.3366C8.37887 10.1758 7.63644 9.779 7.05373 9.19628C6.47101 8.61356 6.07417 7.87113 5.9134 7.06288C5.75263 6.25463 5.83514 5.41685 6.15051 4.65549C6.46587 3.89413 6.99992 3.24339 7.68513 2.78555ZM17.2917 25.0001H19.375V19.7469C19.3733 18.378 18.8288 17.0656 17.8608 16.0976C16.8928 15.1296 15.5804 14.5851 14.2115 14.5834H5.78854C4.41959 14.5851 3.10719 15.1296 2.13919 16.0976C1.1712 17.0656 0.626654 18.378 0.625 19.7469V25.0001H2.70833V19.7469C2.70916 18.9303 3.03395 18.1473 3.61142 17.5698C4.18889 16.9923 4.97187 16.6676 5.78854 16.6667H14.2115C15.0281 16.6676 15.8111 16.9923 16.3886 17.5698C16.9661 18.1473 17.2908 18.9303 17.2917 19.7469V25.0001Z" fill="black"/>
</svg>
